%
M48
METRIC,TZ,000.000
ICI,OFF
T1C1
T2C3.175
T3C0.813
T4C1.016
%
T1
X31416Y99140
T1
X50720Y99140
T1
X60880Y99140
T1
X63420Y99140
T1
X55800Y99140
T1
X36496Y99140
T1
X41576Y99140
T1
X44116Y99140
T1
X58340Y99140
T1
X65960Y99140
T1
X65990Y50880
T1
X50720Y50880
T1
X23796Y99140
T1
X28876Y99140
T1
X38020Y50880
T1
X26336Y99140
T1
X60880Y50880
T1
X40560Y50880
T1
X32940Y50880
T1
X68500Y99140
T1
X46656Y99140
T1
X33956Y99140
T1
X63420Y50880
T1
X48180Y50880
T1
X39036Y99140
T1
X53260Y99140
T1
X68500Y50880
T1
X58340Y50880
T1
X45640Y50880
T1
X35480Y50880
T1
X55800Y50880
T1
X43100Y50880
T2
X18970Y50880
T2
X71040Y55960
T2
X20240Y99140
T2
X71040Y83900
T3
X16270Y48340
T3
X13730Y48340
T4
X23251Y46079
T4
X16749Y46079
T4
X16749Y50601
T4
X23251Y50601
T3
X21270Y43340
T3
X18730Y43340
M30
