G75*
G71*
%OFA0B0*%
%FSLAX23Y23*%
%IPPOS*%
%LPD*%
%ADD10C,0.1*%
%LPD*%D10*
X0Y0D02*
X0Y100D01*
X0Y200D01*
X0Y300D01*
X0Y400D01*
X0Y499D01*
X0Y599D01*
X0Y699D01*
X0Y799D01*
X0Y899D01*
X0Y999D01*
X0Y1099D01*
X0Y1199D01*
X0Y1299D01*
X0Y1398D01*
X0Y1498D01*
X0Y1598D01*
X0Y1698D01*
X0Y1798D01*
X0Y1898D01*
X0Y1998D01*
X0Y2098D01*
X0Y2198D01*
X0Y2297D01*
X0Y2397D01*
X0Y2497D01*
X0Y2597D01*
X0Y2697D01*
X0Y2797D01*
X0Y2897D01*
X0Y2997D01*
X0Y3097D01*
X0Y3196D01*
X0Y3296D01*
X0Y3396D01*
X0Y3496D01*
X0Y3596D01*
X0Y3696D01*
X0Y3796D01*
X0Y3896D01*
X0Y3995D01*
X0Y4095D01*
X0Y4195D01*
X0Y4295D01*
X0Y4395D01*
X0Y4495D01*
X0Y4595D01*
X0Y4695D01*
X0Y4795D01*
X0Y4894D01*
X0Y4994D01*
X0Y5094D01*
X0Y5194D01*
X0Y5294D01*
X0Y5394D01*
X0Y5494D01*
X0Y5594D01*
X0Y5694D01*
X0Y5793D01*
X0Y5893D01*
X0Y5993D01*
X0Y6093D01*
X0Y6193D01*
X0Y6293D01*
X0Y6393D01*
X0Y6493D01*
X0Y6593D01*
X0Y6692D01*
X0Y6792D01*
X0Y6892D01*
X0Y6992D01*
X0Y7092D01*
X0Y7192D01*
X0Y7292D01*
X0Y7392D01*
X0Y7492D01*
X0Y7591D01*
X0Y7691D01*
X0Y7791D01*
X0Y7891D01*
X0Y7991D01*
X0Y8091D01*
X0Y8191D01*
X0Y8291D01*
X0Y8391D01*
X0Y8490D01*
X0Y8590D01*
X0Y8690D01*
X0Y8790D01*
X0Y8890D01*
X0Y8990D01*
X0Y9090D01*
X0Y9190D01*
X0Y9290D01*
X0Y9389D01*
X0Y9489D01*
X0Y9589D01*
X0Y9689D01*
X0Y9789D01*
X0Y9889D01*
X0Y9989D01*
X0Y10089D01*
X0Y10188D01*
X0Y10288D01*
X0Y10388D01*
X0Y10488D01*
X0Y10588D01*
X0Y10688D01*
X0Y10788D01*
X0Y10888D01*
X0Y10988D01*
X0Y11087D01*
X0Y11187D01*
X0Y11287D01*
X0Y11387D01*
X0Y11487D01*
X0Y11587D01*
X0Y11687D01*
X0Y11787D01*
X0Y11887D01*
X0Y11986D01*
X0Y12086D01*
X0Y12186D01*
X0Y12286D01*
X0Y12386D01*
X0Y12486D01*
X0Y12586D01*
X0Y12686D01*
X0Y12786D01*
X0Y12885D01*
X0Y12985D01*
X0Y13085D01*
X0Y13185D01*
X0Y13285D01*
X0Y13385D01*
X0Y13485D01*
X0Y13585D01*
X0Y13685D01*
X0Y13784D01*
X0Y13884D01*
X0Y13984D01*
X0Y14084D01*
X0Y14184D01*
X0Y14284D01*
X0Y14384D01*
X0Y14484D01*
X0Y14584D01*
X0Y14683D01*
X0Y14783D01*
X0Y14883D01*
X0Y14983D01*
X0Y15083D01*
X0Y15183D01*
X0Y15283D01*
X0Y15383D01*
X0Y15483D01*
X0Y15582D01*
X0Y15682D01*
X0Y15782D01*
X0Y15882D01*
X0Y15982D01*
X0Y16082D01*
X0Y16182D01*
X0Y16282D01*
X0Y16381D01*
X0Y16481D01*
X0Y16581D01*
X0Y16681D01*
X0Y16781D01*
X0Y16881D01*
X0Y16981D01*
X0Y17081D01*
X0Y17181D01*
X0Y17280D01*
X0Y17380D01*
X0Y17480D01*
X0Y17580D01*
X0Y17680D01*
X0Y17780D01*
X0Y17880D01*
X0Y17980D01*
X0Y18080D01*
X0Y18179D01*
X0Y18279D01*
X0Y18379D01*
X0Y18479D01*
X0Y18579D01*
X0Y18679D01*
X0Y18779D01*
X0Y18879D01*
X0Y18979D01*
X0Y19078D01*
X0Y19178D01*
X0Y19278D01*
X0Y19378D01*
X0Y19478D01*
X0Y19578D01*
X0Y19678D01*
X0Y19778D01*
X0Y19878D01*
X0Y19977D01*
X0Y20077D01*
X0Y20177D01*
X0Y20277D01*
X0Y20377D01*
X0Y20477D01*
X0Y20577D01*
X0Y20677D01*
X0Y20777D01*
X0Y20876D01*
X0Y20976D01*
X0Y21076D01*
X0Y21176D01*
X0Y21276D01*
X0Y21376D01*
X0Y21476D01*
X0Y21576D01*
X0Y21676D01*
X0Y21775D01*
X0Y21875D01*
X0Y21975D01*
X0Y22075D01*
X0Y22175D01*
X0Y22275D01*
X0Y22375D01*
X0Y22475D01*
X0Y22575D01*
X0Y22674D01*
X0Y22774D01*
X0Y22874D01*
X0Y22974D01*
X0Y23074D01*
X0Y23174D01*
X0Y23274D01*
X0Y23374D01*
X0Y23473D01*
X0Y23573D01*
X0Y23673D01*
X0Y23773D01*
X0Y23873D01*
X0Y23973D01*
X0Y24073D01*
X0Y24173D01*
X0Y24273D01*
X0Y24372D01*
X0Y24472D01*
X0Y24572D01*
X0Y24672D01*
X0Y24772D01*
X0Y24872D01*
X0Y24972D01*
X0Y25072D01*
X0Y25172D01*
X0Y25271D01*
X0Y25371D01*
X0Y25471D01*
X0Y25571D01*
X0Y25671D01*
X0Y25771D01*
X0Y25871D01*
X0Y25971D01*
X0Y26071D01*
X0Y26170D01*
X0Y26270D01*
X0Y26370D01*
X0Y26470D01*
X0Y26570D01*
X0Y26670D01*
X0Y26770D01*
X0Y26870D01*
X0Y26970D01*
X0Y27069D01*
X0Y27169D01*
X0Y27269D01*
X0Y27369D01*
X0Y27469D01*
X0Y27569D01*
X0Y27669D01*
X0Y27769D01*
X0Y27869D01*
X0Y27968D01*
X0Y28068D01*
X0Y28168D01*
X0Y28268D01*
X0Y28368D01*
X0Y28468D01*
X0Y28568D01*
X0Y28668D01*
X0Y28768D01*
X0Y28867D01*
X0Y28967D01*
X0Y29067D01*
X0Y29167D01*
X0Y29267D01*
X0Y29367D01*
X0Y29467D01*
X0Y29567D01*
X0Y29667D01*
X0Y29766D01*
X0Y29866D01*
X0Y29966D01*
X0Y30066D01*
X0Y30166D01*
X0Y30266D01*
X0Y30366D01*
X0Y30466D01*
X0Y30565D01*
X0Y30665D01*
X0Y30765D01*
X0Y30865D01*
X0Y30965D01*
X0Y31065D01*
X0Y31165D01*
X0Y31265D01*
X0Y31365D01*
X0Y31464D01*
X0Y31564D01*
X0Y31664D01*
X0Y31764D01*
X0Y31864D01*
X0Y31964D01*
X0Y32064D01*
X0Y32164D01*
X0Y32264D01*
X0Y32363D01*
X0Y32463D01*
X0Y32563D01*
X0Y32663D01*
X0Y32763D01*
X0Y32863D01*
X0Y32963D01*
X0Y33063D01*
X0Y33163D01*
X0Y33262D01*
X0Y33362D01*
X0Y33462D01*
X0Y33562D01*
X0Y33662D01*
X0Y33762D01*
X0Y33862D01*
X0Y33962D01*
X0Y34062D01*
X0Y34161D01*
X0Y34261D01*
X0Y34361D01*
X0Y34461D01*
X0Y34561D01*
X0Y34661D01*
X0Y34761D01*
X0Y34861D01*
X0Y34961D01*
X0Y35060D01*
X0Y35160D01*
X0Y35260D01*
X0Y35360D01*
X0Y35460D01*
X0Y35560D01*
X0Y35660D01*
X0Y35760D01*
X0Y35860D01*
X0Y35959D01*
X0Y36059D01*
X0Y36159D01*
X0Y36259D01*
X0Y36359D01*
X0Y36459D01*
X0Y36559D01*
X0Y36659D01*
X0Y36759D01*
X0Y36858D01*
X0Y36958D01*
X0Y37058D01*
X0Y37158D01*
X0Y37258D01*
X0Y37358D01*
X0Y37458D01*
X0Y37558D01*
X0Y37658D01*
X0Y37757D01*
X0Y37857D01*
X0Y37957D01*
X0Y38057D01*
X0Y38157D01*
X0Y38257D01*
X0Y38357D01*
X0Y38457D01*
X0Y38556D01*
X0Y38656D01*
X0Y38756D01*
X0Y38856D01*
X0Y38956D01*
X0Y39056D01*
X0Y39156D01*
X0Y39256D01*
X0Y39356D01*
X0Y39455D01*
X0Y39555D01*
X0Y39655D01*
X0Y39755D01*
X0Y39855D01*
X0Y39955D01*
X0Y40055D01*
X0Y40155D01*
X0Y40255D01*
X0Y40354D01*
X0Y40454D01*
X0Y40554D01*
X0Y40654D01*
X0Y40754D01*
X0Y40854D01*
X0Y40954D01*
X0Y41054D01*
X0Y41154D01*
X0Y41253D01*
X0Y41353D01*
X0Y41453D01*
X0Y41553D01*
X0Y41653D01*
X0Y41753D01*
X0Y41853D01*
X0Y41953D01*
X0Y42053D01*
X0Y42152D01*
X0Y42252D01*
X0Y42352D01*
X0Y42452D01*
X0Y42552D01*
X0Y42652D01*
X0Y42752D01*
X0Y42852D01*
X0Y42952D01*
X0Y43051D01*
X0Y43151D01*
X0Y43251D01*
X0Y43351D01*
X0Y43451D01*
X0Y43551D01*
X0Y43651D01*
X0Y43751D01*
X0Y43851D01*
X0Y43950D01*
X0Y44050D01*
X0Y44150D01*
X0Y44250D01*
X0Y44350D01*
X0Y44450D01*
X0Y44550D01*
X0Y44650D01*
X0Y44750D01*
X0Y44849D01*
X0Y44949D01*
X0Y45049D01*
X0Y45149D01*
X0Y45249D01*
X0Y45349D01*
X0Y45449D01*
X0Y45549D01*
X0Y45649D01*
X0Y45748D01*
X0Y45848D01*
X0Y45948D01*
X0Y46048D01*
X0Y46148D01*
X0Y46248D01*
X0Y46348D01*
X0Y46448D01*
X0Y46548D01*
X0Y46647D01*
X0Y46747D01*
X0Y46847D01*
X0Y46947D01*
X0Y47047D01*
X0Y47147D01*
X0Y47247D01*
X0Y47347D01*
X0Y47447D01*
X0Y47546D01*
X0Y47646D01*
X0Y47746D01*
X0Y47846D01*
X0Y47946D01*
X0Y48046D01*
X0Y48146D01*
X0Y48246D01*
X0Y48346D01*
X0Y48445D01*
X0Y48545D01*
X0Y48645D01*
X0Y48745D01*
X0Y48845D01*
X0Y48945D01*
X0Y49045D01*
X0Y49145D01*
X0Y49244D01*
X0Y49344D01*
X0Y49444D01*
X0Y49544D01*
X0Y49644D01*
X0Y49744D01*
X0Y49844D01*
X0Y49944D01*
X0Y50044D01*
X0Y50143D01*
X0Y50243D01*
X0Y50343D01*
X0Y50443D01*
X0Y50543D01*
X0Y50643D01*
X0Y50743D01*
X0Y50843D01*
X0Y50943D01*
X0Y51043D01*
X0Y51142D01*
X0Y51242D01*
X0Y51342D01*
X0Y51442D01*
X0Y51542D01*
X0Y51642D01*
X0Y51742D01*
X0Y51842D01*
X0Y51942D01*
X0Y52041D01*
X0Y52141D01*
X0Y52241D01*
X0Y52341D01*
X0Y52441D01*
X0Y52541D01*
X0Y52641D01*
X0Y52741D01*
X0Y52841D01*
X0Y52940D01*
X0Y53040D01*
X0Y53140D01*
X0Y53240D01*
X0Y53340D01*
X100Y53340D01*
X200Y53340D01*
X300Y53340D01*
X400Y53340D01*
X500Y53340D01*
X599Y53340D01*
X699Y53340D01*
X799Y53340D01*
X899Y53340D01*
X999Y53340D01*
X1099Y53340D01*
X1199Y53340D01*
X1299Y53340D01*
X1399Y53340D01*
X1499Y53340D01*
X1599Y53340D01*
X1699Y53340D01*
X1798Y53340D01*
X1898Y53340D01*
X1998Y53340D01*
X2098Y53340D01*
X2198Y53340D01*
X2298Y53340D01*
X2398Y53340D01*
X2498Y53340D01*
X2598Y53340D01*
X2698Y53340D01*
X2798Y53340D01*
X2897Y53340D01*
X2997Y53340D01*
X3097Y53340D01*
X3197Y53340D01*
X3297Y53340D01*
X3397Y53340D01*
X3497Y53340D01*
X3597Y53340D01*
X3697Y53340D01*
X3797Y53340D01*
X3897Y53340D01*
X3996Y53340D01*
X4096Y53340D01*
X4196Y53340D01*
X4296Y53340D01*
X4396Y53340D01*
X4496Y53340D01*
X4596Y53340D01*
X4696Y53340D01*
X4796Y53340D01*
X4896Y53340D01*
X4996Y53340D01*
X5096Y53340D01*
X5195Y53340D01*
X5295Y53340D01*
X5395Y53340D01*
X5495Y53340D01*
X5595Y53340D01*
X5695Y53340D01*
X5795Y53340D01*
X5895Y53340D01*
X5995Y53340D01*
X6095Y53340D01*
X6195Y53340D01*
X6294Y53340D01*
X6394Y53340D01*
X6494Y53340D01*
X6594Y53340D01*
X6694Y53340D01*
X6794Y53340D01*
X6894Y53340D01*
X6994Y53340D01*
X7094Y53340D01*
X7194Y53340D01*
X7294Y53340D01*
X7393Y53340D01*
X7493Y53340D01*
X7593Y53340D01*
X7693Y53340D01*
X7793Y53340D01*
X7893Y53340D01*
X7993Y53340D01*
X8093Y53340D01*
X8193Y53340D01*
X8293Y53340D01*
X8393Y53340D01*
X8493Y53340D01*
X8592Y53340D01*
X8692Y53340D01*
X8792Y53340D01*
X8892Y53340D01*
X8992Y53340D01*
X9092Y53340D01*
X9192Y53340D01*
X9292Y53340D01*
X9392Y53340D01*
X9492Y53340D01*
X9592Y53340D01*
X9691Y53340D01*
X9791Y53340D01*
X9891Y53340D01*
X9991Y53340D01*
X10091Y53340D01*
X10191Y53340D01*
X10291Y53340D01*
X10391Y53340D01*
X10491Y53340D01*
X10591Y53340D01*
X10691Y53340D01*
X10791Y53340D01*
X10890Y53340D01*
X10990Y53340D01*
X11090Y53340D01*
X11190Y53340D01*
X11290Y53340D01*
X11390Y53340D01*
X11490Y53340D01*
X11590Y53340D01*
X11690Y53340D01*
X11790Y53340D01*
X11890Y53340D01*
X11989Y53340D01*
X12089Y53340D01*
X12189Y53340D01*
X12289Y53340D01*
X12389Y53340D01*
X12489Y53340D01*
X12589Y53340D01*
X12689Y53340D01*
X12789Y53340D01*
X12889Y53340D01*
X12989Y53340D01*
X13088Y53340D01*
X13188Y53340D01*
X13288Y53340D01*
X13388Y53340D01*
X13488Y53340D01*
X13588Y53340D01*
X13688Y53340D01*
X13788Y53340D01*
X13888Y53340D01*
X13988Y53340D01*
X14088Y53340D01*
X14188Y53340D01*
X14287Y53340D01*
X14387Y53340D01*
X14487Y53340D01*
X14587Y53340D01*
X14687Y53340D01*
X14787Y53340D01*
X14887Y53340D01*
X14987Y53340D01*
X15087Y53340D01*
X15187Y53340D01*
X15287Y53340D01*
X15386Y53340D01*
X15486Y53340D01*
X15586Y53340D01*
X15686Y53340D01*
X15786Y53340D01*
X15886Y53340D01*
X15986Y53340D01*
X16086Y53340D01*
X16186Y53340D01*
X16286Y53340D01*
X16386Y53340D01*
X16485Y53340D01*
X16585Y53340D01*
X16685Y53340D01*
X16785Y53340D01*
X16885Y53340D01*
X16985Y53340D01*
X17085Y53340D01*
X17185Y53340D01*
X17285Y53340D01*
X17385Y53340D01*
X17485Y53340D01*
X17585Y53340D01*
X17684Y53340D01*
X17784Y53340D01*
X17884Y53340D01*
X17984Y53340D01*
X18084Y53340D01*
X18184Y53340D01*
X18284Y53340D01*
X18384Y53340D01*
X18484Y53340D01*
X18584Y53340D01*
X18684Y53340D01*
X18783Y53340D01*
X18883Y53340D01*
X18983Y53340D01*
X19083Y53340D01*
X19183Y53340D01*
X19283Y53340D01*
X19383Y53340D01*
X19483Y53340D01*
X19583Y53340D01*
X19683Y53340D01*
X19783Y53340D01*
X19883Y53340D01*
X19982Y53340D01*
X20082Y53340D01*
X20182Y53340D01*
X20282Y53340D01*
X20382Y53340D01*
X20482Y53340D01*
X20582Y53340D01*
X20682Y53340D01*
X20782Y53340D01*
X20882Y53340D01*
X20982Y53340D01*
X21081Y53340D01*
X21181Y53340D01*
X21281Y53340D01*
X21381Y53340D01*
X21481Y53340D01*
X21581Y53340D01*
X21681Y53340D01*
X21781Y53340D01*
X21881Y53340D01*
X21981Y53340D01*
X22081Y53340D01*
X22180Y53340D01*
X22280Y53340D01*
X22380Y53340D01*
X22480Y53340D01*
X22580Y53340D01*
X22680Y53340D01*
X22780Y53340D01*
X22880Y53340D01*
X22980Y53340D01*
X23080Y53340D01*
X23180Y53340D01*
X23280Y53340D01*
X23379Y53340D01*
X23479Y53340D01*
X23579Y53340D01*
X23679Y53340D01*
X23779Y53340D01*
X23879Y53340D01*
X23979Y53340D01*
X24079Y53340D01*
X24179Y53340D01*
X24279Y53340D01*
X24379Y53340D01*
X24478Y53340D01*
X24578Y53340D01*
X24678Y53340D01*
X24778Y53340D01*
X24878Y53340D01*
X24978Y53340D01*
X25078Y53340D01*
X25178Y53340D01*
X25278Y53340D01*
X25378Y53340D01*
X25478Y53340D01*
X25578Y53340D01*
X25677Y53340D01*
X25777Y53340D01*
X25877Y53340D01*
X25977Y53340D01*
X26077Y53340D01*
X26177Y53340D01*
X26277Y53340D01*
X26377Y53340D01*
X26477Y53340D01*
X26577Y53340D01*
X26677Y53340D01*
X26776Y53340D01*
X26876Y53340D01*
X26976Y53340D01*
X27076Y53340D01*
X27176Y53340D01*
X27276Y53340D01*
X27376Y53340D01*
X27476Y53340D01*
X27576Y53340D01*
X27676Y53340D01*
X27776Y53340D01*
X27875Y53340D01*
X27975Y53340D01*
X28075Y53340D01*
X28175Y53340D01*
X28275Y53340D01*
X28375Y53340D01*
X28475Y53340D01*
X28575Y53340D01*
X28675Y53340D01*
X28775Y53340D01*
X28875Y53340D01*
X28975Y53340D01*
X29074Y53340D01*
X29174Y53340D01*
X29274Y53340D01*
X29374Y53340D01*
X29474Y53340D01*
X29574Y53340D01*
X29674Y53340D01*
X29774Y53340D01*
X29874Y53340D01*
X29974Y53340D01*
X30074Y53340D01*
X30173Y53340D01*
X30273Y53340D01*
X30373Y53340D01*
X30473Y53340D01*
X30573Y53340D01*
X30673Y53340D01*
X30773Y53340D01*
X30873Y53340D01*
X30973Y53340D01*
X31073Y53340D01*
X31173Y53340D01*
X31273Y53340D01*
X31372Y53340D01*
X31472Y53340D01*
X31572Y53340D01*
X31672Y53340D01*
X31772Y53340D01*
X31872Y53340D01*
X31972Y53340D01*
X32072Y53340D01*
X32172Y53340D01*
X32272Y53340D01*
X32372Y53340D01*
X32471Y53340D01*
X32571Y53340D01*
X32671Y53340D01*
X32771Y53340D01*
X32871Y53340D01*
X32971Y53340D01*
X33071Y53340D01*
X33171Y53340D01*
X33271Y53340D01*
X33371Y53340D01*
X33471Y53340D01*
X33571Y53340D01*
X33670Y53340D01*
X33770Y53340D01*
X33870Y53340D01*
X33970Y53340D01*
X34070Y53340D01*
X34170Y53340D01*
X34270Y53340D01*
X34370Y53340D01*
X34470Y53340D01*
X34570Y53340D01*
X34670Y53340D01*
X34769Y53340D01*
X34869Y53340D01*
X34969Y53340D01*
X35069Y53340D01*
X35169Y53340D01*
X35269Y53340D01*
X35369Y53340D01*
X35469Y53340D01*
X35569Y53340D01*
X35669Y53340D01*
X35769Y53340D01*
X35868Y53340D01*
X35968Y53340D01*
X36068Y53340D01*
X36168Y53340D01*
X36268Y53340D01*
X36368Y53340D01*
X36468Y53340D01*
X36568Y53340D01*
X36668Y53340D01*
X36768Y53340D01*
X36868Y53340D01*
X36968Y53340D01*
X37067Y53340D01*
X37167Y53340D01*
X37267Y53340D01*
X37367Y53340D01*
X37467Y53340D01*
X37567Y53340D01*
X37667Y53340D01*
X37767Y53340D01*
X37867Y53340D01*
X37967Y53340D01*
X38067Y53340D01*
X38166Y53340D01*
X38266Y53340D01*
X38366Y53340D01*
X38466Y53340D01*
X38566Y53340D01*
X38666Y53340D01*
X38766Y53340D01*
X38866Y53340D01*
X38966Y53340D01*
X39066Y53340D01*
X39166Y53340D01*
X39265Y53340D01*
X39365Y53340D01*
X39465Y53340D01*
X39565Y53340D01*
X39665Y53340D01*
X39765Y53340D01*
X39865Y53340D01*
X39965Y53340D01*
X40065Y53340D01*
X40165Y53340D01*
X40265Y53340D01*
X40365Y53340D01*
X40464Y53340D01*
X40564Y53340D01*
X40664Y53340D01*
X40764Y53340D01*
X40864Y53340D01*
X40964Y53340D01*
X41064Y53340D01*
X41164Y53340D01*
X41264Y53340D01*
X41364Y53340D01*
X41464Y53340D01*
X41563Y53340D01*
X41663Y53340D01*
X41763Y53340D01*
X41863Y53340D01*
X41963Y53340D01*
X42063Y53340D01*
X42163Y53340D01*
X42263Y53340D01*
X42363Y53340D01*
X42463Y53340D01*
X42563Y53340D01*
X42663Y53340D01*
X42762Y53340D01*
X42862Y53340D01*
X42962Y53340D01*
X43062Y53340D01*
X43162Y53340D01*
X43262Y53340D01*
X43362Y53340D01*
X43462Y53340D01*
X43562Y53340D01*
X43662Y53340D01*
X43762Y53340D01*
X43861Y53340D01*
X43961Y53340D01*
X44061Y53340D01*
X44161Y53340D01*
X44261Y53340D01*
X44361Y53340D01*
X44461Y53340D01*
X44561Y53340D01*
X44661Y53340D01*
X44761Y53340D01*
X44861Y53340D01*
X44961Y53340D01*
X45060Y53340D01*
X45160Y53340D01*
X45260Y53340D01*
X45360Y53340D01*
X45460Y53340D01*
X45560Y53340D01*
X45660Y53340D01*
X45760Y53340D01*
X45860Y53340D01*
X45960Y53340D01*
X46060Y53340D01*
X46159Y53340D01*
X46259Y53340D01*
X46359Y53340D01*
X46459Y53340D01*
X46559Y53340D01*
X46659Y53340D01*
X46759Y53340D01*
X46859Y53340D01*
X46959Y53340D01*
X47059Y53340D01*
X47159Y53340D01*
X47259Y53340D01*
X47358Y53340D01*
X47458Y53340D01*
X47558Y53340D01*
X47658Y53340D01*
X47758Y53340D01*
X47858Y53340D01*
X47958Y53340D01*
X48058Y53340D01*
X48158Y53340D01*
X48258Y53340D01*
X48358Y53340D01*
X48457Y53340D01*
X48557Y53340D01*
X48657Y53340D01*
X48757Y53340D01*
X48857Y53340D01*
X48957Y53340D01*
X49057Y53340D01*
X49157Y53340D01*
X49257Y53340D01*
X49357Y53340D01*
X49457Y53340D01*
X49557Y53340D01*
X49656Y53340D01*
X49756Y53340D01*
X49856Y53340D01*
X49956Y53340D01*
X50056Y53340D01*
X50156Y53340D01*
X50256Y53340D01*
X50356Y53340D01*
X50456Y53340D01*
X50556Y53340D01*
X50656Y53340D01*
X50755Y53340D01*
X50855Y53340D01*
X50955Y53340D01*
X51055Y53340D01*
X51155Y53340D01*
X51255Y53340D01*
X51355Y53340D01*
X51455Y53340D01*
X51555Y53340D01*
X51655Y53340D01*
X51755Y53340D01*
X51855Y53340D01*
X51954Y53340D01*
X52054Y53340D01*
X52154Y53340D01*
X52254Y53340D01*
X52354Y53340D01*
X52454Y53340D01*
X52554Y53340D01*
X52654Y53340D01*
X52754Y53340D01*
X52854Y53340D01*
X52954Y53340D01*
X53053Y53340D01*
X53153Y53340D01*
X53253Y53340D01*
X53353Y53340D01*
X53453Y53340D01*
X53553Y53340D01*
X53653Y53340D01*
X53753Y53340D01*
X53853Y53340D01*
X53953Y53340D01*
X54053Y53340D01*
X54153Y53340D01*
X54252Y53340D01*
X54352Y53340D01*
X54452Y53340D01*
X54552Y53340D01*
X54652Y53340D01*
X54752Y53340D01*
X54852Y53340D01*
X54952Y53340D01*
X55052Y53340D01*
X55152Y53340D01*
X55252Y53340D01*
X55351Y53340D01*
X55451Y53340D01*
X55551Y53340D01*
X55651Y53340D01*
X55751Y53340D01*
X55851Y53340D01*
X55951Y53340D01*
X56051Y53340D01*
X56151Y53340D01*
X56251Y53340D01*
X56351Y53340D01*
X56451Y53340D01*
X56550Y53340D01*
X56650Y53340D01*
X56750Y53340D01*
X56850Y53340D01*
X56950Y53340D01*
X57050Y53340D01*
X57150Y53340D01*
X57150Y53240D01*
X57150Y53140D01*
X57150Y53040D01*
X57150Y52940D01*
X57150Y52841D01*
X57150Y52741D01*
X57150Y52641D01*
X57150Y52541D01*
X57150Y52441D01*
X57150Y52341D01*
X57150Y52241D01*
X57150Y52141D01*
X57150Y52041D01*
X57150Y51942D01*
X57150Y51842D01*
X57150Y51742D01*
X57150Y51642D01*
X57150Y51542D01*
X57150Y51442D01*
X57150Y51342D01*
X57150Y51242D01*
X57150Y51142D01*
X57150Y51043D01*
X57150Y50943D01*
X57150Y50843D01*
X57150Y50743D01*
X57150Y50643D01*
X57150Y50543D01*
X57150Y50443D01*
X57150Y50343D01*
X57150Y50243D01*
X57150Y50144D01*
X57150Y50044D01*
X57150Y49944D01*
X57150Y49844D01*
X57150Y49744D01*
X57150Y49644D01*
X57150Y49544D01*
X57150Y49444D01*
X57150Y49345D01*
X57150Y49245D01*
X57150Y49145D01*
X57150Y49045D01*
X57150Y48945D01*
X57150Y48845D01*
X57150Y48745D01*
X57150Y48645D01*
X57150Y48545D01*
X57150Y48446D01*
X57150Y48346D01*
X57150Y48246D01*
X57150Y48146D01*
X57150Y48046D01*
X57150Y47946D01*
X57150Y47846D01*
X57150Y47746D01*
X57150Y47646D01*
X57150Y47547D01*
X57150Y47447D01*
X57150Y47347D01*
X57150Y47247D01*
X57150Y47147D01*
X57150Y47047D01*
X57150Y46947D01*
X57150Y46847D01*
X57150Y46747D01*
X57150Y46648D01*
X57150Y46548D01*
X57150Y46448D01*
X57150Y46348D01*
X57150Y46248D01*
X57150Y46148D01*
X57150Y46048D01*
X57150Y45948D01*
X57150Y45848D01*
X57150Y45749D01*
X57150Y45649D01*
X57150Y45549D01*
X57150Y45449D01*
X57150Y45349D01*
X57150Y45249D01*
X57150Y45149D01*
X57150Y45049D01*
X57150Y44949D01*
X57150Y44850D01*
X57150Y44750D01*
X57150Y44650D01*
X57150Y44550D01*
X57150Y44450D01*
X57150Y44350D01*
X57150Y44250D01*
X57150Y44150D01*
X57150Y44050D01*
X57150Y43951D01*
X57150Y43851D01*
X57150Y43751D01*
X57150Y43651D01*
X57150Y43551D01*
X57150Y43451D01*
X57150Y43351D01*
X57150Y43251D01*
X57150Y43152D01*
X57150Y43052D01*
X57150Y42952D01*
X57150Y42852D01*
X57150Y42752D01*
X57150Y42652D01*
X57150Y42552D01*
X57150Y42452D01*
X57150Y42352D01*
X57150Y42253D01*
X57150Y42153D01*
X57150Y42053D01*
X57150Y41953D01*
X57150Y41853D01*
X57150Y41753D01*
X57150Y41653D01*
X57150Y41553D01*
X57150Y41453D01*
X57150Y41354D01*
X57150Y41254D01*
X57150Y41154D01*
X57150Y41054D01*
X57150Y40954D01*
X57150Y40854D01*
X57150Y40754D01*
X57150Y40654D01*
X57150Y40554D01*
X57150Y40455D01*
X57150Y40355D01*
X57150Y40255D01*
X57150Y40155D01*
X57150Y40055D01*
X57150Y39955D01*
X57150Y39855D01*
X57150Y39755D01*
X57150Y39655D01*
X57150Y39556D01*
X57150Y39456D01*
X57150Y39356D01*
X57150Y39256D01*
X57150Y39156D01*
X57150Y39056D01*
X57150Y38956D01*
X57150Y38856D01*
X57150Y38756D01*
X57150Y38657D01*
X57150Y38557D01*
X57150Y38457D01*
X57150Y38357D01*
X57150Y38257D01*
X57150Y38157D01*
X57150Y38057D01*
X57150Y37957D01*
X57150Y37857D01*
X57150Y37758D01*
X57150Y37658D01*
X57150Y37558D01*
X57150Y37458D01*
X57150Y37358D01*
X57150Y37258D01*
X57150Y37158D01*
X57150Y37058D01*
X57150Y36959D01*
X57150Y36859D01*
X57150Y36759D01*
X57150Y36659D01*
X57150Y36559D01*
X57150Y36459D01*
X57150Y36359D01*
X57150Y36259D01*
X57150Y36159D01*
X57150Y36060D01*
X57150Y35960D01*
X57150Y35860D01*
X57150Y35760D01*
X57150Y35660D01*
X57150Y35560D01*
X57150Y35460D01*
X57150Y35360D01*
X57150Y35260D01*
X57150Y35161D01*
X57150Y35061D01*
X57150Y34961D01*
X57150Y34861D01*
X57150Y34761D01*
X57150Y34661D01*
X57150Y34561D01*
X57150Y34461D01*
X57150Y34361D01*
X57150Y34262D01*
X57150Y34162D01*
X57150Y34062D01*
X57150Y33962D01*
X57150Y33862D01*
X57150Y33762D01*
X57150Y33662D01*
X57150Y33562D01*
X57150Y33462D01*
X57150Y33363D01*
X57150Y33263D01*
X57150Y33163D01*
X57150Y33063D01*
X57150Y32963D01*
X57150Y32863D01*
X57150Y32763D01*
X57150Y32663D01*
X57150Y32563D01*
X57150Y32464D01*
X57150Y32364D01*
X57150Y32264D01*
X57150Y32164D01*
X57150Y32064D01*
X57150Y31964D01*
X57150Y31864D01*
X57150Y31764D01*
X57150Y31664D01*
X57150Y31565D01*
X57150Y31465D01*
X57150Y31365D01*
X57150Y31265D01*
X57150Y31165D01*
X57150Y31065D01*
X57150Y30965D01*
X57150Y30865D01*
X57150Y30765D01*
X57150Y30666D01*
X57150Y30566D01*
X57150Y30466D01*
X57150Y30366D01*
X57150Y30266D01*
X57150Y30166D01*
X57150Y30066D01*
X57150Y29966D01*
X57150Y29867D01*
X57150Y29767D01*
X57150Y29667D01*
X57150Y29567D01*
X57150Y29467D01*
X57150Y29367D01*
X57150Y29267D01*
X57150Y29167D01*
X57150Y29067D01*
X57150Y28968D01*
X57150Y28868D01*
X57150Y28768D01*
X57150Y28668D01*
X57150Y28568D01*
X57150Y28468D01*
X57150Y28368D01*
X57150Y28268D01*
X57150Y28168D01*
X57150Y28069D01*
X57150Y27969D01*
X57150Y27869D01*
X57150Y27769D01*
X57150Y27669D01*
X57150Y27569D01*
X57150Y27469D01*
X57150Y27369D01*
X57150Y27269D01*
X57150Y27170D01*
X57150Y27070D01*
X57150Y26970D01*
X57150Y26870D01*
X57150Y26770D01*
X57150Y26670D01*
X57150Y26570D01*
X57150Y26470D01*
X57150Y26370D01*
X57150Y26271D01*
X57150Y26171D01*
X57150Y26071D01*
X57150Y25971D01*
X57150Y25871D01*
X57150Y25771D01*
X57150Y25671D01*
X57150Y25571D01*
X57150Y25471D01*
X57150Y25372D01*
X57150Y25272D01*
X57150Y25172D01*
X57150Y25072D01*
X57150Y24972D01*
X57150Y24872D01*
X57150Y24772D01*
X57150Y24672D01*
X57150Y24572D01*
X57150Y24473D01*
X57150Y24373D01*
X57150Y24273D01*
X57150Y24173D01*
X57150Y24073D01*
X57150Y23973D01*
X57150Y23873D01*
X57150Y23773D01*
X57150Y23673D01*
X57150Y23574D01*
X57150Y23474D01*
X57150Y23374D01*
X57150Y23274D01*
X57150Y23174D01*
X57150Y23074D01*
X57150Y22974D01*
X57150Y22874D01*
X57150Y22775D01*
X57150Y22675D01*
X57150Y22575D01*
X57150Y22475D01*
X57150Y22375D01*
X57150Y22275D01*
X57150Y22175D01*
X57150Y22075D01*
X57150Y21975D01*
X57150Y21876D01*
X57150Y21776D01*
X57150Y21676D01*
X57150Y21576D01*
X57150Y21476D01*
X57150Y21376D01*
X57150Y21276D01*
X57150Y21176D01*
X57150Y21076D01*
X57150Y20977D01*
X57150Y20877D01*
X57150Y20777D01*
X57150Y20677D01*
X57150Y20577D01*
X57150Y20477D01*
X57150Y20377D01*
X57150Y20277D01*
X57150Y20177D01*
X57150Y20078D01*
X57150Y19978D01*
X57150Y19878D01*
X57150Y19778D01*
X57150Y19678D01*
X57150Y19578D01*
X57150Y19478D01*
X57150Y19378D01*
X57150Y19278D01*
X57150Y19179D01*
X57150Y19079D01*
X57150Y18979D01*
X57150Y18879D01*
X57150Y18779D01*
X57150Y18679D01*
X57150Y18579D01*
X57150Y18479D01*
X57150Y18379D01*
X57150Y18280D01*
X57150Y18180D01*
X57150Y18080D01*
X57150Y17980D01*
X57150Y17880D01*
X57150Y17780D01*
X57150Y17680D01*
X57150Y17580D01*
X57150Y17480D01*
X57150Y17381D01*
X57150Y17281D01*
X57150Y17181D01*
X57150Y17081D01*
X57150Y16981D01*
X57150Y16881D01*
X57150Y16781D01*
X57150Y16681D01*
X57150Y16581D01*
X57150Y16482D01*
X57150Y16382D01*
X57150Y16282D01*
X57150Y16182D01*
X57150Y16082D01*
X57150Y15982D01*
X57150Y15882D01*
X57150Y15782D01*
X57150Y15682D01*
X57150Y15583D01*
X57150Y15483D01*
X57150Y15383D01*
X57150Y15283D01*
X57150Y15183D01*
X57150Y15083D01*
X57150Y14983D01*
X57150Y14883D01*
X57150Y14784D01*
X57150Y14684D01*
X57150Y14584D01*
X57150Y14484D01*
X57150Y14384D01*
X57150Y14284D01*
X57150Y14184D01*
X57150Y14084D01*
X57150Y13984D01*
X57150Y13885D01*
X57150Y13785D01*
X57150Y13685D01*
X57150Y13585D01*
X57150Y13485D01*
X57150Y13385D01*
X57150Y13285D01*
X57150Y13185D01*
X57150Y13085D01*
X57150Y12986D01*
X57150Y12886D01*
X57150Y12786D01*
X57150Y12686D01*
X57150Y12586D01*
X57150Y12486D01*
X57150Y12386D01*
X57150Y12286D01*
X57150Y12186D01*
X57150Y12087D01*
X57150Y11987D01*
X57150Y11887D01*
X57150Y11787D01*
X57150Y11687D01*
X57150Y11587D01*
X57150Y11487D01*
X57150Y11387D01*
X57150Y11287D01*
X57150Y11188D01*
X57150Y11088D01*
X57150Y10988D01*
X57150Y10888D01*
X57150Y10788D01*
X57150Y10688D01*
X57150Y10588D01*
X57150Y10488D01*
X57150Y10388D01*
X57150Y10289D01*
X57150Y10189D01*
X57150Y10089D01*
X57150Y9989D01*
X57150Y9889D01*
X57150Y9789D01*
X57150Y9689D01*
X57150Y9589D01*
X57150Y9489D01*
X57150Y9390D01*
X57150Y9290D01*
X57150Y9190D01*
X57150Y9090D01*
X57150Y8990D01*
X57150Y8890D01*
X57150Y8790D01*
X57150Y8690D01*
X57150Y8590D01*
X57150Y8491D01*
X57150Y8391D01*
X57150Y8291D01*
X57150Y8191D01*
X57150Y8091D01*
X57150Y7991D01*
X57150Y7891D01*
X57150Y7791D01*
X57150Y7691D01*
X57150Y7592D01*
X57150Y7492D01*
X57150Y7392D01*
X57150Y7292D01*
X57150Y7192D01*
X57150Y7092D01*
X57150Y6992D01*
X57150Y6892D01*
X57150Y6792D01*
X57150Y6693D01*
X57150Y6593D01*
X57150Y6493D01*
X57150Y6393D01*
X57150Y6293D01*
X57150Y6193D01*
X57150Y6093D01*
X57150Y5993D01*
X57150Y5893D01*
X57150Y5794D01*
X57150Y5694D01*
X57150Y5594D01*
X57150Y5494D01*
X57150Y5394D01*
X57150Y5294D01*
X57150Y5194D01*
X57150Y5094D01*
X57150Y4994D01*
X57150Y4895D01*
X57150Y4795D01*
X57150Y4695D01*
X57150Y4595D01*
X57150Y4495D01*
X57150Y4395D01*
X57150Y4295D01*
X57150Y4195D01*
X57150Y4096D01*
X57150Y3996D01*
X57150Y3896D01*
X57150Y3796D01*
X57150Y3696D01*
X57150Y3596D01*
X57150Y3496D01*
X57150Y3396D01*
X57150Y3296D01*
X57150Y3197D01*
X57150Y3097D01*
X57150Y2997D01*
X57150Y2897D01*
X57150Y2797D01*
X57150Y2697D01*
X57150Y2597D01*
X57150Y2497D01*
X57150Y2397D01*
X57150Y2297D01*
X57150Y2198D01*
X57150Y2098D01*
X57150Y1998D01*
X57150Y1898D01*
X57150Y1798D01*
X57150Y1698D01*
X57150Y1598D01*
X57150Y1498D01*
X57150Y1398D01*
X57150Y1299D01*
X57150Y1199D01*
X57150Y1099D01*
X57150Y999D01*
X57150Y899D01*
X57150Y799D01*
X57150Y699D01*
X57150Y599D01*
X57150Y499D01*
X57150Y400D01*
X57150Y300D01*
X57150Y200D01*
X57150Y100D01*
X57150Y0D01*
X57050Y0D01*
X56950Y0D01*
X56850Y0D01*
X56750Y0D01*
X56650Y0D01*
X56551Y0D01*
X56451Y0D01*
X56351Y0D01*
X56251Y0D01*
X56151Y0D01*
X56051Y0D01*
X55951Y0D01*
X55851Y0D01*
X55751Y0D01*
X55651Y0D01*
X55551Y0D01*
X55451Y0D01*
X55352Y0D01*
X55252Y0D01*
X55152Y0D01*
X55052Y0D01*
X54952Y0D01*
X54852Y0D01*
X54752Y0D01*
X54652Y0D01*
X54552Y0D01*
X54452Y0D01*
X54352Y0D01*
X54253Y0D01*
X54153Y0D01*
X54053Y0D01*
X53953Y0D01*
X53853Y0D01*
X53753Y0D01*
X53653Y0D01*
X53553Y0D01*
X53453Y0D01*
X53353Y0D01*
X53253Y0D01*
X53154Y0D01*
X53054Y0D01*
X52954Y0D01*
X52854Y0D01*
X52754Y0D01*
X52654Y0D01*
X52554Y0D01*
X52454Y0D01*
X52354Y0D01*
X52254Y0D01*
X52154Y0D01*
X52054Y0D01*
X51955Y0D01*
X51855Y0D01*
X51755Y0D01*
X51655Y0D01*
X51555Y0D01*
X51455Y0D01*
X51355Y0D01*
X51255Y0D01*
X51155Y0D01*
X51055Y0D01*
X50955Y0D01*
X50856Y0D01*
X50756Y0D01*
X50656Y0D01*
X50556Y0D01*
X50456Y0D01*
X50356Y0D01*
X50256Y0D01*
X50156Y0D01*
X50056Y0D01*
X49956Y0D01*
X49856Y0D01*
X49757Y0D01*
X49657Y0D01*
X49557Y0D01*
X49457Y0D01*
X49357Y0D01*
X49257Y0D01*
X49157Y0D01*
X49057Y0D01*
X48957Y0D01*
X48857Y0D01*
X48757Y0D01*
X48657Y0D01*
X48558Y0D01*
X48458Y0D01*
X48358Y0D01*
X48258Y0D01*
X48158Y0D01*
X48058Y0D01*
X47958Y0D01*
X47858Y0D01*
X47758Y0D01*
X47658Y0D01*
X47558Y0D01*
X47459Y0D01*
X47359Y0D01*
X47259Y0D01*
X47159Y0D01*
X47059Y0D01*
X46959Y0D01*
X46859Y0D01*
X46759Y0D01*
X46659Y0D01*
X46559Y0D01*
X46459Y0D01*
X46359Y0D01*
X46260Y0D01*
X46160Y0D01*
X46060Y0D01*
X45960Y0D01*
X45860Y0D01*
X45760Y0D01*
X45660Y0D01*
X45560Y0D01*
X45460Y0D01*
X45360Y0D01*
X45260Y0D01*
X45161Y0D01*
X45061Y0D01*
X44961Y0D01*
X44861Y0D01*
X44761Y0D01*
X44661Y0D01*
X44561Y0D01*
X44461Y0D01*
X44361Y0D01*
X44261Y0D01*
X44161Y0D01*
X44062Y0D01*
X43962Y0D01*
X43862Y0D01*
X43762Y0D01*
X43662Y0D01*
X43562Y0D01*
X43462Y0D01*
X43362Y0D01*
X43262Y0D01*
X43162Y0D01*
X43062Y0D01*
X42962Y0D01*
X42863Y0D01*
X42763Y0D01*
X42663Y0D01*
X42563Y0D01*
X42463Y0D01*
X42363Y0D01*
X42263Y0D01*
X42163Y0D01*
X42063Y0D01*
X41963Y0D01*
X41863Y0D01*
X41764Y0D01*
X41664Y0D01*
X41564Y0D01*
X41464Y0D01*
X41364Y0D01*
X41264Y0D01*
X41164Y0D01*
X41064Y0D01*
X40964Y0D01*
X40864Y0D01*
X40764Y0D01*
X40665Y0D01*
X40565Y0D01*
X40465Y0D01*
X40365Y0D01*
X40265Y0D01*
X40165Y0D01*
X40065Y0D01*
X39965Y0D01*
X39865Y0D01*
X39765Y0D01*
X39665Y0D01*
X39565Y0D01*
X39466Y0D01*
X39366Y0D01*
X39266Y0D01*
X39166Y0D01*
X39066Y0D01*
X38966Y0D01*
X38866Y0D01*
X38766Y0D01*
X38666Y0D01*
X38566Y0D01*
X38466Y0D01*
X38367Y0D01*
X38267Y0D01*
X38167Y0D01*
X38067Y0D01*
X37967Y0D01*
X37867Y0D01*
X37767Y0D01*
X37667Y0D01*
X37567Y0D01*
X37467Y0D01*
X37367Y0D01*
X37267Y0D01*
X37168Y0D01*
X37068Y0D01*
X36968Y0D01*
X36868Y0D01*
X36768Y0D01*
X36668Y0D01*
X36568Y0D01*
X36468Y0D01*
X36368Y0D01*
X36268Y0D01*
X36168Y0D01*
X36069Y0D01*
X35969Y0D01*
X35869Y0D01*
X35769Y0D01*
X35669Y0D01*
X35569Y0D01*
X35469Y0D01*
X35369Y0D01*
X35269Y0D01*
X35169Y0D01*
X35069Y0D01*
X34970Y0D01*
X34870Y0D01*
X34770Y0D01*
X34670Y0D01*
X34570Y0D01*
X34470Y0D01*
X34370Y0D01*
X34270Y0D01*
X34170Y0D01*
X34070Y0D01*
X33970Y0D01*
X33870Y0D01*
X33771Y0D01*
X33671Y0D01*
X33571Y0D01*
X33471Y0D01*
X33371Y0D01*
X33271Y0D01*
X33171Y0D01*
X33071Y0D01*
X32971Y0D01*
X32871Y0D01*
X32771Y0D01*
X32672Y0D01*
X32572Y0D01*
X32472Y0D01*
X32372Y0D01*
X32272Y0D01*
X32172Y0D01*
X32072Y0D01*
X31972Y0D01*
X31872Y0D01*
X31772Y0D01*
X31672Y0D01*
X31572Y0D01*
X31473Y0D01*
X31373Y0D01*
X31273Y0D01*
X31173Y0D01*
X31073Y0D01*
X30973Y0D01*
X30873Y0D01*
X30773Y0D01*
X30673Y0D01*
X30573Y0D01*
X30473Y0D01*
X30374Y0D01*
X30274Y0D01*
X30174Y0D01*
X30074Y0D01*
X29974Y0D01*
X29874Y0D01*
X29774Y0D01*
X29674Y0D01*
X29574Y0D01*
X29474Y0D01*
X29374Y0D01*
X29275Y0D01*
X29175Y0D01*
X29075Y0D01*
X28975Y0D01*
X28875Y0D01*
X28775Y0D01*
X28675Y0D01*
X28575Y0D01*
X28475Y0D01*
X28375Y0D01*
X28275Y0D01*
X28175Y0D01*
X28076Y0D01*
X27976Y0D01*
X27876Y0D01*
X27776Y0D01*
X27676Y0D01*
X27576Y0D01*
X27476Y0D01*
X27376Y0D01*
X27276Y0D01*
X27176Y0D01*
X27076Y0D01*
X26977Y0D01*
X26877Y0D01*
X26777Y0D01*
X26677Y0D01*
X26577Y0D01*
X26477Y0D01*
X26377Y0D01*
X26277Y0D01*
X26177Y0D01*
X26077Y0D01*
X25977Y0D01*
X25877Y0D01*
X25778Y0D01*
X25678Y0D01*
X25578Y0D01*
X25478Y0D01*
X25378Y0D01*
X25278Y0D01*
X25178Y0D01*
X25078Y0D01*
X24978Y0D01*
X24878Y0D01*
X24778Y0D01*
X24679Y0D01*
X24579Y0D01*
X24479Y0D01*
X24379Y0D01*
X24279Y0D01*
X24179Y0D01*
X24079Y0D01*
X23979Y0D01*
X23879Y0D01*
X23779Y0D01*
X23679Y0D01*
X23579Y0D01*
X23480Y0D01*
X23380Y0D01*
X23280Y0D01*
X23180Y0D01*
X23080Y0D01*
X22980Y0D01*
X22880Y0D01*
X22780Y0D01*
X22680Y0D01*
X22580Y0D01*
X22480Y0D01*
X22381Y0D01*
X22281Y0D01*
X22181Y0D01*
X22081Y0D01*
X21981Y0D01*
X21881Y0D01*
X21781Y0D01*
X21681Y0D01*
X21581Y0D01*
X21481Y0D01*
X21381Y0D01*
X21282Y0D01*
X21182Y0D01*
X21082Y0D01*
X20982Y0D01*
X20882Y0D01*
X20782Y0D01*
X20682Y0D01*
X20582Y0D01*
X20482Y0D01*
X20382Y0D01*
X20282Y0D01*
X20182Y0D01*
X20083Y0D01*
X19983Y0D01*
X19883Y0D01*
X19783Y0D01*
X19683Y0D01*
X19583Y0D01*
X19483Y0D01*
X19383Y0D01*
X19283Y0D01*
X19183Y0D01*
X19083Y0D01*
X18984Y0D01*
X18884Y0D01*
X18784Y0D01*
X18684Y0D01*
X18584Y0D01*
X18484Y0D01*
X18384Y0D01*
X18284Y0D01*
X18184Y0D01*
X18084Y0D01*
X17984Y0D01*
X17885Y0D01*
X17785Y0D01*
X17685Y0D01*
X17585Y0D01*
X17485Y0D01*
X17385Y0D01*
X17285Y0D01*
X17185Y0D01*
X17085Y0D01*
X16985Y0D01*
X16885Y0D01*
X16785Y0D01*
X16686Y0D01*
X16586Y0D01*
X16486Y0D01*
X16386Y0D01*
X16286Y0D01*
X16186Y0D01*
X16086Y0D01*
X15986Y0D01*
X15886Y0D01*
X15786Y0D01*
X15686Y0D01*
X15587Y0D01*
X15487Y0D01*
X15387Y0D01*
X15287Y0D01*
X15187Y0D01*
X15087Y0D01*
X14987Y0D01*
X14887Y0D01*
X14787Y0D01*
X14687Y0D01*
X14587Y0D01*
X14487Y0D01*
X14388Y0D01*
X14288Y0D01*
X14188Y0D01*
X14088Y0D01*
X13988Y0D01*
X13888Y0D01*
X13788Y0D01*
X13688Y0D01*
X13588Y0D01*
X13488Y0D01*
X13388Y0D01*
X13289Y0D01*
X13189Y0D01*
X13089Y0D01*
X12989Y0D01*
X12889Y0D01*
X12789Y0D01*
X12689Y0D01*
X12589Y0D01*
X12489Y0D01*
X12389Y0D01*
X12289Y0D01*
X12189Y0D01*
X12090Y0D01*
X11990Y0D01*
X11890Y0D01*
X11790Y0D01*
X11690Y0D01*
X11590Y0D01*
X11490Y0D01*
X11390Y0D01*
X11290Y0D01*
X11190Y0D01*
X11090Y0D01*
X10991Y0D01*
X10891Y0D01*
X10791Y0D01*
X10691Y0D01*
X10591Y0D01*
X10491Y0D01*
X10391Y0D01*
X10291Y0D01*
X10191Y0D01*
X10091Y0D01*
X9991Y0D01*
X9891Y0D01*
X9792Y0D01*
X9692Y0D01*
X9592Y0D01*
X9492Y0D01*
X9392Y0D01*
X9292Y0D01*
X9192Y0D01*
X9092Y0D01*
X8992Y0D01*
X8892Y0D01*
X8792Y0D01*
X8693Y0D01*
X8593Y0D01*
X8493Y0D01*
X8393Y0D01*
X8293Y0D01*
X8193Y0D01*
X8093Y0D01*
X7993Y0D01*
X7893Y0D01*
X7793Y0D01*
X7693Y0D01*
X7593Y0D01*
X7494Y0D01*
X7394Y0D01*
X7294Y0D01*
X7194Y0D01*
X7094Y0D01*
X6994Y0D01*
X6894Y0D01*
X6794Y0D01*
X6694Y0D01*
X6594Y0D01*
X6494Y0D01*
X6395Y0D01*
X6295Y0D01*
X6195Y0D01*
X6095Y0D01*
X5995Y0D01*
X5895Y0D01*
X5795Y0D01*
X5695Y0D01*
X5595Y0D01*
X5495Y0D01*
X5395Y0D01*
X5295Y0D01*
X5196Y0D01*
X5096Y0D01*
X4996Y0D01*
X4896Y0D01*
X4796Y0D01*
X4696Y0D01*
X4596Y0D01*
X4496Y0D01*
X4396Y0D01*
X4296Y0D01*
X4196Y0D01*
X4097Y0D01*
X3997Y0D01*
X3897Y0D01*
X3797Y0D01*
X3697Y0D01*
X3597Y0D01*
X3497Y0D01*
X3397Y0D01*
X3297Y0D01*
X3197Y0D01*
X3097Y0D01*
X2997Y0D01*
X2898Y0D01*
X2798Y0D01*
X2698Y0D01*
X2598Y0D01*
X2498Y0D01*
X2398Y0D01*
X2298Y0D01*
X2198Y0D01*
X2098Y0D01*
X1998Y0D01*
X1898Y0D01*
X1799Y0D01*
X1699Y0D01*
X1599Y0D01*
X1499Y0D01*
X1399Y0D01*
X1299Y0D01*
X1199Y0D01*
X1099Y0D01*
X999Y0D01*
X899Y0D01*
X799Y0D01*
X699Y0D01*
X600Y0D01*
X500Y0D01*
X400Y0D01*
X300Y0D01*
X200Y0D01*
X100Y0D01*
X0Y0D01*
X0Y0D01*
G36*
X50369Y24480D02*
X50369Y28138D01*
X51152Y27505D01*
X51435Y27980D01*
X50283Y28868D01*
X49678Y28868D01*
X49678Y24480D01*
X50369Y24480D01*
G37*
G36*
X48355Y24480D02*
X48355Y25019D01*
X46887Y26518D01*
X46697Y26733D01*
X46527Y26960D01*
X46453Y27075D01*
X46389Y27193D01*
X46337Y27311D01*
X46297Y27431D01*
X46272Y27551D01*
X46263Y27670D01*
X46268Y27754D01*
X46281Y27833D01*
X46302Y27907D01*
X46331Y27977D01*
X46368Y28041D01*
X46410Y28099D01*
X46460Y28153D01*
X46515Y28202D01*
X46574Y28244D01*
X46639Y28282D01*
X46707Y28314D01*
X46779Y28340D01*
X46855Y28361D01*
X46932Y28376D01*
X47012Y28385D01*
X47093Y28388D01*
X47238Y28382D01*
X47380Y28365D01*
X47586Y28320D01*
X47720Y28281D01*
X47981Y28179D01*
X48171Y28091D01*
X48204Y28657D01*
X47918Y28767D01*
X47623Y28854D01*
X47471Y28888D01*
X47318Y28913D01*
X47163Y28928D01*
X47007Y28933D01*
X46863Y28929D01*
X46723Y28917D01*
X46587Y28896D01*
X46455Y28866D01*
X46328Y28827D01*
X46208Y28778D01*
X46096Y28720D01*
X45990Y28652D01*
X45895Y28574D01*
X45809Y28486D01*
X45734Y28388D01*
X45672Y28279D01*
X45620Y28158D01*
X45584Y28027D01*
X45560Y27884D01*
X45552Y27730D01*
X45561Y27582D01*
X45589Y27439D01*
X45632Y27296D01*
X45690Y27156D01*
X45760Y27020D01*
X45841Y26885D01*
X46029Y26625D01*
X47514Y25012D01*
X45480Y25012D01*
X45480Y24480D01*
X48355Y24480D01*
X48355Y24480D01*
G37*
G36*
X44421Y25143D02*
X44291Y25096D01*
X44159Y25054D01*
X43884Y24994D01*
X43610Y24957D01*
X43348Y24946D01*
X43240Y24949D01*
X43135Y24958D01*
X43032Y24973D01*
X42934Y24995D01*
X42839Y25023D01*
X42750Y25057D01*
X42666Y25099D01*
X42588Y25147D01*
X42517Y25202D01*
X42454Y25265D01*
X42398Y25335D01*
X42350Y25413D01*
X42313Y25498D01*
X42286Y25591D01*
X42268Y25692D01*
X42262Y25801D01*
X42268Y25901D01*
X42286Y25993D01*
X42314Y26075D01*
X42351Y26149D01*
X42399Y26216D01*
X42455Y26275D01*
X42518Y26325D01*
X42588Y26370D01*
X42664Y26407D01*
X42746Y26440D01*
X42833Y26465D01*
X42923Y26485D01*
X43016Y26500D01*
X43211Y26517D01*
X43888Y26519D01*
X43888Y27013D01*
X43281Y27015D01*
X43069Y27033D01*
X42970Y27049D01*
X42876Y27071D01*
X42787Y27099D01*
X42707Y27133D01*
X42632Y27172D01*
X42564Y27220D01*
X42504Y27274D01*
X42453Y27334D01*
X42409Y27404D01*
X42374Y27480D01*
X42349Y27566D01*
X42333Y27659D01*
X42328Y27762D01*
X42334Y27853D01*
X42350Y27933D01*
X42377Y28008D01*
X42413Y28075D01*
X42457Y28135D01*
X42509Y28189D01*
X42569Y28235D01*
X42634Y28276D01*
X42706Y28310D01*
X42781Y28339D01*
X42861Y28364D01*
X42944Y28383D01*
X43030Y28397D01*
X43206Y28412D01*
X43416Y28410D01*
X43669Y28382D01*
X43928Y28328D01*
X44181Y28250D01*
X44302Y28204D01*
X44342Y28743D01*
X44063Y28825D01*
X43779Y28885D01*
X43490Y28921D01*
X43196Y28933D01*
X42908Y28920D01*
X42765Y28903D01*
X42627Y28879D01*
X42491Y28845D01*
X42360Y28804D01*
X42237Y28753D01*
X42122Y28693D01*
X42015Y28624D01*
X41918Y28544D01*
X41834Y28453D01*
X41761Y28350D01*
X41704Y28237D01*
X41660Y28112D01*
X41633Y27973D01*
X41624Y27822D01*
X41629Y27719D01*
X41641Y27622D01*
X41661Y27530D01*
X41689Y27442D01*
X41726Y27360D01*
X41768Y27282D01*
X41818Y27209D01*
X41874Y27141D01*
X41936Y27079D01*
X42004Y27022D01*
X42078Y26969D01*
X42157Y26921D01*
X42241Y26879D01*
X42329Y26842D01*
X42422Y26809D01*
X42519Y26782D01*
X42419Y26766D01*
X42322Y26741D01*
X42228Y26712D01*
X42138Y26676D01*
X42053Y26634D01*
X41972Y26585D01*
X41896Y26531D01*
X41826Y26471D01*
X41763Y26405D01*
X41707Y26335D01*
X41657Y26258D01*
X41616Y26175D01*
X41583Y26088D01*
X41559Y25996D01*
X41544Y25897D01*
X41539Y25795D01*
X41549Y25618D01*
X41578Y25454D01*
X41627Y25303D01*
X41691Y25165D01*
X41772Y25038D01*
X41868Y24925D01*
X41977Y24824D01*
X42097Y24734D01*
X42228Y24655D01*
X42369Y24588D01*
X42518Y24531D01*
X42674Y24486D01*
X42835Y24451D01*
X43001Y24426D01*
X43170Y24412D01*
X43562Y24412D01*
X43844Y24436D01*
X44118Y24483D01*
X44254Y24516D01*
X44460Y24578D01*
X44421Y25143D01*
X44421Y25143D01*
X44421Y25143D01*
G37*
G36*
X36752Y26997D02*
X36780Y27241D01*
X36828Y27468D01*
X36894Y27677D01*
X36978Y27869D01*
X37079Y28044D01*
X37197Y28202D01*
X37333Y28342D01*
X37486Y28466D01*
X37654Y28573D01*
X37838Y28664D01*
X38038Y28737D01*
X38253Y28795D01*
X38482Y28835D01*
X38727Y28859D01*
X40334Y28868D01*
X40334Y26751D01*
X39617Y26751D01*
X39617Y28335D01*
X38870Y28328D01*
X38694Y28308D01*
X38530Y28274D01*
X38377Y28227D01*
X38237Y28167D01*
X38108Y28094D01*
X37992Y28009D01*
X37887Y27913D01*
X37795Y27804D01*
X37715Y27685D01*
X37647Y27553D01*
X37591Y27410D01*
X37548Y27257D01*
X37517Y27094D01*
X37498Y26919D01*
X37492Y26736D01*
X37499Y26525D01*
X37521Y26327D01*
X37557Y26144D01*
X37608Y25975D01*
X37673Y25820D01*
X37752Y25679D01*
X37844Y25551D01*
X37949Y25437D01*
X38069Y25337D01*
X38200Y25251D01*
X38345Y25178D01*
X38503Y25118D01*
X38673Y25072D01*
X38855Y25038D01*
X39049Y25019D01*
X39617Y25012D01*
X39617Y26751D01*
X40334Y26751D01*
X40334Y24480D01*
X38917Y24488D01*
X38663Y24514D01*
X38420Y24556D01*
X38191Y24617D01*
X37975Y24695D01*
X37774Y24790D01*
X37589Y24904D01*
X37420Y25035D01*
X37267Y25184D01*
X37132Y25351D01*
X37016Y25536D01*
X36920Y25739D01*
X36843Y25961D01*
X36787Y26201D01*
X36753Y26459D01*
X36742Y26736D01*
X36752Y26997D01*
G37*
G36*
X35094Y28446D02*
X35102Y28498D01*
X35116Y28548D01*
X35133Y28596D01*
X35155Y28642D01*
X35181Y28685D01*
X35212Y28726D01*
X35246Y28763D01*
X35284Y28798D01*
X35324Y28828D01*
X35368Y28854D01*
X35414Y28876D01*
X35462Y28894D01*
X35512Y28907D01*
X35565Y28915D01*
X35618Y28917D01*
X35672Y28915D01*
X35725Y28907D01*
X35775Y28894D01*
X35824Y28876D01*
X35869Y28854D01*
X35913Y28828D01*
X35953Y28798D01*
X35991Y28763D01*
X36025Y28726D01*
X36056Y28685D01*
X36082Y28642D01*
X36104Y28596D01*
X36122Y28548D01*
X36135Y28498D01*
X36143Y28446D01*
X36146Y28392D01*
X36060Y28392D01*
X36058Y28437D01*
X36051Y28482D01*
X36041Y28524D01*
X36025Y28566D01*
X36007Y28604D01*
X35985Y28642D01*
X35960Y28676D01*
X35931Y28709D01*
X35900Y28738D01*
X35866Y28763D01*
X35830Y28787D01*
X35792Y28805D01*
X35750Y28821D01*
X35708Y28832D01*
X35664Y28838D01*
X35618Y28841D01*
X35573Y28838D01*
X35529Y28832D01*
X35487Y28820D01*
X35446Y28805D01*
X35408Y28786D01*
X35372Y28763D01*
X35337Y28737D01*
X35306Y28708D01*
X35277Y28676D01*
X35252Y28641D01*
X35231Y28604D01*
X35212Y28565D01*
X35198Y28523D01*
X35186Y28481D01*
X35180Y28437D01*
X35177Y28392D01*
X35180Y28346D01*
X35186Y28302D01*
X35198Y28259D01*
X35212Y28218D01*
X35231Y28178D01*
X35252Y28141D01*
X35277Y28107D01*
X35306Y28074D01*
X35337Y28045D01*
X35372Y28018D01*
X35408Y27995D01*
X35446Y27976D01*
X35487Y27961D01*
X35529Y27950D01*
X35573Y27943D01*
X35618Y27941D01*
X35642Y27941D01*
X35664Y27943D01*
X35708Y27950D01*
X35750Y27961D01*
X35792Y27976D01*
X35830Y27995D01*
X35866Y28018D01*
X35900Y28045D01*
X35931Y28073D01*
X35960Y28107D01*
X35985Y28142D01*
X36007Y28179D01*
X36025Y28219D01*
X36041Y28259D01*
X36051Y28303D01*
X36058Y28346D01*
X36060Y28392D01*
X36146Y28392D01*
X36144Y28351D01*
X36140Y28312D01*
X36133Y28272D01*
X36122Y28235D01*
X36109Y28199D01*
X36094Y28163D01*
X36076Y28129D01*
X36056Y28096D01*
X36033Y28066D01*
X36009Y28037D01*
X35983Y28009D01*
X35954Y27984D01*
X35924Y27961D01*
X35893Y27941D01*
X35859Y27921D01*
X35824Y27905D01*
X35775Y27887D01*
X35724Y27874D01*
X35672Y27866D01*
X35618Y27864D01*
X35565Y27867D01*
X35512Y27875D01*
X35462Y27887D01*
X35414Y27905D01*
X35368Y27927D01*
X35324Y27954D01*
X35284Y27984D01*
X35246Y28018D01*
X35212Y28056D01*
X35181Y28097D01*
X35155Y28141D01*
X35133Y28186D01*
X35116Y28235D01*
X35102Y28286D01*
X35094Y28338D01*
X35092Y28392D01*
X35094Y28446D01*
G37*
G36*
X35468Y28310D02*
X35476Y28325D01*
X35484Y28338D01*
X35493Y28350D01*
X35503Y28361D01*
X35515Y28370D01*
X35528Y28378D01*
X35545Y28384D01*
X35562Y28388D01*
X35532Y28395D01*
X35504Y28405D01*
X35478Y28419D01*
X35456Y28437D01*
X35436Y28458D01*
X35421Y28482D01*
X35412Y28508D01*
X35408Y28537D01*
X35413Y28577D01*
X35425Y28611D01*
X35444Y28638D01*
X35471Y28660D01*
X35501Y28677D01*
X35537Y28688D01*
X35575Y28696D01*
X35615Y28698D01*
X35802Y28698D01*
X35802Y28528D01*
X35723Y28528D01*
X35723Y28628D01*
X35625Y28627D01*
X35595Y28624D01*
X35568Y28620D01*
X35544Y28612D01*
X35522Y28599D01*
X35506Y28583D01*
X35496Y28562D01*
X35493Y28536D01*
X35496Y28507D01*
X35506Y28484D01*
X35522Y28466D01*
X35543Y28453D01*
X35567Y28443D01*
X35594Y28435D01*
X35623Y28432D01*
X35723Y28431D01*
X35723Y28528D01*
X35802Y28528D01*
X35802Y28083D01*
X35723Y28083D01*
X35723Y28361D01*
X35641Y28360D01*
X35618Y28356D01*
X35600Y28351D01*
X35584Y28343D01*
X35572Y28332D01*
X35560Y28318D01*
X35550Y28301D01*
X35449Y28083D01*
X35364Y28083D01*
X35468Y28310D01*
X35468Y28310D01*
G37*
G36*
X29377Y24598D02*
X29498Y24549D01*
X29626Y24510D01*
X29762Y24476D01*
X30041Y24431D01*
X30318Y24410D01*
X30449Y24407D01*
X30705Y24417D01*
X30949Y24446D01*
X31182Y24495D01*
X31400Y24563D01*
X31606Y24649D01*
X31797Y24752D01*
X31973Y24872D01*
X32133Y25011D01*
X32278Y25165D01*
X32404Y25336D01*
X32514Y25521D01*
X32605Y25722D01*
X32677Y25939D01*
X32729Y26169D01*
X32761Y26412D01*
X32772Y26671D01*
X32761Y26916D01*
X32727Y27153D01*
X32673Y27378D01*
X32598Y27590D01*
X32504Y27790D01*
X32391Y27976D01*
X32261Y28148D01*
X32114Y28305D01*
X31951Y28447D01*
X31774Y28571D01*
X31583Y28679D01*
X31378Y28768D01*
X31162Y28840D01*
X30934Y28892D01*
X30696Y28923D01*
X30449Y28933D01*
X30186Y28923D01*
X29910Y28893D01*
X29639Y28842D01*
X29510Y28808D01*
X29390Y28769D01*
X29429Y28191D01*
X29534Y28234D01*
X29647Y28271D01*
X29764Y28303D01*
X30008Y28349D01*
X30252Y28372D01*
X30370Y28375D01*
X30558Y28366D01*
X30736Y28341D01*
X30904Y28301D01*
X31061Y28246D01*
X31208Y28176D01*
X31344Y28093D01*
X31468Y27998D01*
X31581Y27890D01*
X31682Y27771D01*
X31770Y27640D01*
X31846Y27500D01*
X31909Y27351D01*
X31957Y27192D01*
X31993Y27025D01*
X32015Y26851D01*
X32022Y26671D01*
X32015Y26484D01*
X31995Y26306D01*
X31960Y26136D01*
X31913Y25976D01*
X31853Y25825D01*
X31779Y25686D01*
X31693Y25556D01*
X31595Y25438D01*
X31484Y25332D01*
X31362Y25239D01*
X31227Y25158D01*
X31081Y25090D01*
X30923Y25036D01*
X30754Y24998D01*
X30575Y24974D01*
X30383Y24966D01*
X30132Y24976D01*
X29886Y25010D01*
X29764Y25036D01*
X29645Y25069D01*
X29473Y25132D01*
X29416Y25157D01*
X29377Y24598D01*
X29377Y24598D01*
G37*
G36*
X28422Y24480D02*
X28422Y28868D01*
X27706Y28868D01*
X27706Y24480D01*
X28422Y24480D01*
X28422Y24480D01*
G37*
G36*
X24027Y26077D02*
X24080Y26195D01*
X24140Y26301D01*
X24173Y26351D01*
X24207Y26397D01*
X24245Y26441D01*
X24283Y26481D01*
X24324Y26519D01*
X24367Y26552D01*
X24412Y26582D01*
X24459Y26609D01*
X24509Y26632D01*
X24561Y26651D01*
X24615Y26666D01*
X24672Y26677D01*
X24570Y26697D01*
X24470Y26723D01*
X24374Y26757D01*
X24281Y26797D01*
X24194Y26844D01*
X24111Y26897D01*
X24033Y26956D01*
X23961Y27022D01*
X23897Y27093D01*
X23838Y27169D01*
X23787Y27251D01*
X23745Y27338D01*
X23711Y27431D01*
X23686Y27528D01*
X23671Y27630D01*
X23666Y27736D01*
X23675Y27902D01*
X23701Y28051D01*
X23745Y28185D01*
X23803Y28304D01*
X23876Y28410D01*
X23962Y28502D01*
X24059Y28582D01*
X24167Y28650D01*
X24282Y28708D01*
X24407Y28754D01*
X24537Y28793D01*
X24673Y28821D01*
X24956Y28857D01*
X26547Y28868D01*
X26547Y27660D01*
X25844Y27660D01*
X25844Y28348D01*
X25177Y28342D01*
X24996Y28324D01*
X24911Y28308D01*
X24830Y28287D01*
X24755Y28260D01*
X24685Y28228D01*
X24622Y28189D01*
X24565Y28142D01*
X24516Y28088D01*
X24473Y28026D01*
X24440Y27955D01*
X24416Y27875D01*
X24401Y27785D01*
X24395Y27684D01*
X24402Y27583D01*
X24419Y27491D01*
X24447Y27407D01*
X24485Y27331D01*
X24531Y27264D01*
X24586Y27203D01*
X24647Y27149D01*
X24715Y27102D01*
X24789Y27062D01*
X24868Y27028D01*
X24951Y26999D01*
X25037Y26977D01*
X25125Y26961D01*
X25215Y26949D01*
X25844Y26940D01*
X25844Y27660D01*
X26547Y27660D01*
X26547Y24480D01*
X25844Y24480D01*
X25844Y26413D01*
X25331Y26407D01*
X25262Y26399D01*
X25198Y26387D01*
X25139Y26371D01*
X25086Y26351D01*
X25036Y26325D01*
X24989Y26295D01*
X24947Y26260D01*
X24907Y26219D01*
X24869Y26173D01*
X24833Y26119D01*
X24798Y26060D01*
X24731Y25922D01*
X24159Y24480D01*
X23375Y24480D01*
X24027Y26077D01*
X24027Y26077D01*
G37*
G36*
X19493Y24598D02*
X19615Y24549D01*
X19743Y24510D01*
X19879Y24476D01*
X20158Y24431D01*
X20434Y24410D01*
X20566Y24407D01*
X20822Y24417D01*
X21066Y24446D01*
X21299Y24495D01*
X21517Y24563D01*
X21723Y24649D01*
X21914Y24752D01*
X22090Y24872D01*
X22251Y25011D01*
X22395Y25165D01*
X22521Y25336D01*
X22632Y25521D01*
X22722Y25722D01*
X22794Y25939D01*
X22846Y26169D01*
X22878Y26412D01*
X22889Y26671D01*
X22877Y26916D01*
X22844Y27153D01*
X22789Y27378D01*
X22715Y27590D01*
X22620Y27790D01*
X22508Y27976D01*
X22378Y28148D01*
X22231Y28305D01*
X22068Y28447D01*
X21891Y28571D01*
X21699Y28679D01*
X21495Y28768D01*
X21279Y28840D01*
X21052Y28892D01*
X20813Y28923D01*
X20566Y28933D01*
X20303Y28923D01*
X20027Y28893D01*
X19755Y28842D01*
X19627Y28808D01*
X19506Y28769D01*
X19546Y28191D01*
X19651Y28234D01*
X19764Y28271D01*
X19881Y28303D01*
X20125Y28349D01*
X20369Y28372D01*
X20487Y28375D01*
X20675Y28366D01*
X20852Y28341D01*
X21020Y28301D01*
X21178Y28246D01*
X21325Y28176D01*
X21461Y28093D01*
X21585Y27998D01*
X21697Y27890D01*
X21799Y27771D01*
X21887Y27640D01*
X21963Y27500D01*
X22025Y27351D01*
X22074Y27192D01*
X22109Y27025D01*
X22132Y26851D01*
X22139Y26671D01*
X22132Y26484D01*
X22111Y26306D01*
X22077Y26136D01*
X22029Y25976D01*
X21970Y25825D01*
X21896Y25686D01*
X21810Y25556D01*
X21712Y25438D01*
X21601Y25332D01*
X21479Y25239D01*
X21344Y25158D01*
X21198Y25090D01*
X21040Y25036D01*
X20871Y24998D01*
X20692Y24974D01*
X20438Y24966D01*
X20187Y24982D01*
X19942Y25022D01*
X19821Y25051D01*
X19704Y25088D01*
X19533Y25157D01*
X19493Y24598D01*
X19493Y24598D01*
G37*
G36*
X17875Y26071D02*
X17871Y25954D01*
X17860Y25841D01*
X17840Y25732D01*
X17812Y25629D01*
X17778Y25532D01*
X17734Y25441D01*
X17684Y25357D01*
X17625Y25279D01*
X17558Y25209D01*
X17484Y25147D01*
X17400Y25094D01*
X17308Y25049D01*
X17209Y25014D01*
X17102Y24988D01*
X16986Y24971D01*
X16862Y24966D01*
X16738Y24971D01*
X16621Y24988D01*
X16513Y25013D01*
X16414Y25048D01*
X16322Y25093D01*
X16239Y25145D01*
X16163Y25207D01*
X16095Y25277D01*
X16035Y25354D01*
X15984Y25438D01*
X15940Y25529D01*
X15905Y25627D01*
X15877Y25730D01*
X15857Y25839D01*
X15846Y25953D01*
X15842Y28868D01*
X15125Y28868D01*
X15133Y25884D01*
X15158Y25702D01*
X15197Y25530D01*
X15253Y25370D01*
X15322Y25221D01*
X15406Y25084D01*
X15502Y24958D01*
X15611Y24845D01*
X15733Y24745D01*
X15865Y24657D01*
X16009Y24581D01*
X16163Y24519D01*
X16326Y24470D01*
X16499Y24435D01*
X16680Y24414D01*
X16868Y24407D01*
X17056Y24414D01*
X17237Y24434D01*
X17409Y24467D01*
X17571Y24515D01*
X17723Y24575D01*
X17865Y24649D01*
X17996Y24735D01*
X18115Y24833D01*
X18222Y24944D01*
X18317Y25068D01*
X18399Y25203D01*
X18467Y25351D01*
X18521Y25510D01*
X18560Y25682D01*
X18585Y25864D01*
X18593Y28868D01*
X17875Y28868D01*
X17875Y26071D01*
X17875Y26071D01*
G37*
G36*
X13920Y24480D02*
X13920Y28868D01*
X13203Y28868D01*
X13203Y24480D01*
X13920Y24480D01*
X13920Y24480D01*
G37*
G36*
X11072Y24480D02*
X11072Y28276D01*
X12407Y28276D01*
X12407Y28868D01*
X9012Y28868D01*
X9012Y28276D01*
X10354Y28276D01*
X10354Y24480D01*
X11072Y24480D01*
G37*
G36*
X8328Y25196D02*
X8199Y25134D01*
X8073Y25083D01*
X7946Y25039D01*
X7818Y25005D01*
X7686Y24978D01*
X7552Y24960D01*
X7268Y24946D01*
X7189Y24949D01*
X7111Y24956D01*
X7034Y24968D01*
X6959Y24986D01*
X6886Y25008D01*
X6817Y25036D01*
X6750Y25071D01*
X6690Y25111D01*
X6633Y25157D01*
X6581Y25210D01*
X6537Y25269D01*
X6498Y25335D01*
X6468Y25408D01*
X6445Y25487D01*
X6430Y25576D01*
X6425Y25670D01*
X6429Y25746D01*
X6442Y25815D01*
X6461Y25880D01*
X6487Y25942D01*
X6520Y25999D01*
X6558Y26052D01*
X6602Y26102D01*
X6651Y26148D01*
X6706Y26193D01*
X6826Y26276D01*
X7604Y26664D01*
X7756Y26751D01*
X7896Y26850D01*
X7961Y26904D01*
X8021Y26962D01*
X8077Y27024D01*
X8128Y27090D01*
X8173Y27161D01*
X8213Y27238D01*
X8246Y27320D01*
X8272Y27408D01*
X8292Y27501D01*
X8304Y27603D01*
X8308Y27710D01*
X8299Y27867D01*
X8274Y28011D01*
X8234Y28145D01*
X8179Y28267D01*
X8111Y28379D01*
X8032Y28479D01*
X7942Y28568D01*
X7844Y28647D01*
X7737Y28717D01*
X7624Y28775D01*
X7504Y28825D01*
X7381Y28865D01*
X7254Y28895D01*
X7125Y28916D01*
X6996Y28929D01*
X6666Y28928D01*
X6410Y28907D01*
X6165Y28869D01*
X5873Y28796D01*
X5912Y28217D01*
X6021Y28260D01*
X6133Y28297D01*
X6248Y28327D01*
X6482Y28371D01*
X6715Y28392D01*
X6897Y28392D01*
X6967Y28386D01*
X7037Y28377D01*
X7106Y28362D01*
X7173Y28342D01*
X7239Y28318D01*
X7302Y28289D01*
X7361Y28254D01*
X7415Y28214D01*
X7464Y28167D01*
X7508Y28115D01*
X7546Y28055D01*
X7575Y27989D01*
X7598Y27916D01*
X7612Y27836D01*
X7617Y27749D01*
X7614Y27684D01*
X7603Y27623D01*
X7588Y27566D01*
X7567Y27512D01*
X7540Y27464D01*
X7508Y27417D01*
X7472Y27375D01*
X7431Y27334D01*
X7388Y27296D01*
X7340Y27259D01*
X7237Y27194D01*
X6454Y26814D01*
X6279Y26713D01*
X6198Y26659D01*
X6121Y26602D01*
X6050Y26540D01*
X5984Y26473D01*
X5924Y26402D01*
X5872Y26325D01*
X5825Y26241D01*
X5787Y26151D01*
X5756Y26053D01*
X5734Y25948D01*
X5720Y25833D01*
X5715Y25709D01*
X5723Y25547D01*
X5746Y25396D01*
X5784Y25257D01*
X5834Y25128D01*
X5898Y25011D01*
X5974Y24905D01*
X6061Y24808D01*
X6159Y24722D01*
X6268Y24648D01*
X6384Y24583D01*
X6509Y24529D01*
X6642Y24485D01*
X6783Y24450D01*
X6928Y24426D01*
X7079Y24412D01*
X7300Y24408D01*
X7572Y24423D01*
X7857Y24460D01*
X8147Y24522D01*
X8360Y24585D01*
X8328Y25196D01*
X8328Y25196D01*
G37*
M02*
