G75*
G71*
%OFA0B0*%
%FSLAX23Y23*%
%IPPOS*%
%LPD*%
%ADD10C,0.1*%
%ADD11C,0.111*%
%ADD12C,0*%
%ADD13C,0.169*%
%ADD14C,0.203*%
%LPD*%D10*
X0Y0D02*
X0Y100D01*
X0Y200D01*
X0Y300D01*
X0Y400D01*
X0Y499D01*
X0Y599D01*
X0Y699D01*
X0Y799D01*
X0Y899D01*
X0Y999D01*
X0Y1099D01*
X0Y1199D01*
X0Y1299D01*
X0Y1398D01*
X0Y1498D01*
X0Y1598D01*
X0Y1698D01*
X0Y1798D01*
X0Y1898D01*
X0Y1998D01*
X0Y2098D01*
X0Y2198D01*
X0Y2297D01*
X0Y2397D01*
X0Y2497D01*
X0Y2597D01*
X0Y2697D01*
X0Y2797D01*
X0Y2897D01*
X0Y2997D01*
X0Y3097D01*
X0Y3196D01*
X0Y3296D01*
X0Y3396D01*
X0Y3496D01*
X0Y3596D01*
X0Y3696D01*
X0Y3796D01*
X0Y3896D01*
X0Y3995D01*
X0Y4095D01*
X0Y4195D01*
X0Y4295D01*
X0Y4395D01*
X0Y4495D01*
X0Y4595D01*
X0Y4695D01*
X0Y4795D01*
X0Y4894D01*
X0Y4994D01*
X0Y5094D01*
X0Y5194D01*
X0Y5294D01*
X0Y5394D01*
X0Y5494D01*
X0Y5594D01*
X0Y5694D01*
X0Y5793D01*
X0Y5893D01*
X0Y5993D01*
X0Y6093D01*
X0Y6193D01*
X0Y6293D01*
X0Y6393D01*
X0Y6493D01*
X0Y6593D01*
X0Y6692D01*
X0Y6792D01*
X0Y6892D01*
X0Y6992D01*
X0Y7092D01*
X0Y7192D01*
X0Y7292D01*
X0Y7392D01*
X0Y7492D01*
X0Y7591D01*
X0Y7691D01*
X0Y7791D01*
X0Y7891D01*
X0Y7991D01*
X0Y8091D01*
X0Y8191D01*
X0Y8291D01*
X0Y8391D01*
X0Y8490D01*
X0Y8590D01*
X0Y8690D01*
X0Y8790D01*
X0Y8890D01*
X0Y8990D01*
X0Y9090D01*
X0Y9190D01*
X0Y9290D01*
X0Y9389D01*
X0Y9489D01*
X0Y9589D01*
X0Y9689D01*
X0Y9789D01*
X0Y9889D01*
X0Y9989D01*
X0Y10089D01*
X0Y10188D01*
X0Y10288D01*
X0Y10388D01*
X0Y10488D01*
X0Y10588D01*
X0Y10688D01*
X0Y10788D01*
X0Y10888D01*
X0Y10988D01*
X0Y11087D01*
X0Y11187D01*
X0Y11287D01*
X0Y11387D01*
X0Y11487D01*
X0Y11587D01*
X0Y11687D01*
X0Y11787D01*
X0Y11887D01*
X0Y11986D01*
X0Y12086D01*
X0Y12186D01*
X0Y12286D01*
X0Y12386D01*
X0Y12486D01*
X0Y12586D01*
X0Y12686D01*
X0Y12786D01*
X0Y12885D01*
X0Y12985D01*
X0Y13085D01*
X0Y13185D01*
X0Y13285D01*
X0Y13385D01*
X0Y13485D01*
X0Y13585D01*
X0Y13685D01*
X0Y13784D01*
X0Y13884D01*
X0Y13984D01*
X0Y14084D01*
X0Y14184D01*
X0Y14284D01*
X0Y14384D01*
X0Y14484D01*
X0Y14584D01*
X0Y14683D01*
X0Y14783D01*
X0Y14883D01*
X0Y14983D01*
X0Y15083D01*
X0Y15183D01*
X0Y15283D01*
X0Y15383D01*
X0Y15483D01*
X0Y15582D01*
X0Y15682D01*
X0Y15782D01*
X0Y15882D01*
X0Y15982D01*
X0Y16082D01*
X0Y16182D01*
X0Y16282D01*
X0Y16381D01*
X0Y16481D01*
X0Y16581D01*
X0Y16681D01*
X0Y16781D01*
X0Y16881D01*
X0Y16981D01*
X0Y17081D01*
X0Y17181D01*
X0Y17280D01*
X0Y17380D01*
X0Y17480D01*
X0Y17580D01*
X0Y17680D01*
X0Y17780D01*
X0Y17880D01*
X0Y17980D01*
X0Y18080D01*
X0Y18179D01*
X0Y18279D01*
X0Y18379D01*
X0Y18479D01*
X0Y18579D01*
X0Y18679D01*
X0Y18779D01*
X0Y18879D01*
X0Y18979D01*
X0Y19078D01*
X0Y19178D01*
X0Y19278D01*
X0Y19378D01*
X0Y19478D01*
X0Y19578D01*
X0Y19678D01*
X0Y19778D01*
X0Y19878D01*
X0Y19977D01*
X0Y20077D01*
X0Y20177D01*
X0Y20277D01*
X0Y20377D01*
X0Y20477D01*
X0Y20577D01*
X0Y20677D01*
X0Y20777D01*
X0Y20876D01*
X0Y20976D01*
X0Y21076D01*
X0Y21176D01*
X0Y21276D01*
X0Y21376D01*
X0Y21476D01*
X0Y21576D01*
X0Y21676D01*
X0Y21775D01*
X0Y21875D01*
X0Y21975D01*
X0Y22075D01*
X0Y22175D01*
X0Y22275D01*
X0Y22375D01*
X0Y22475D01*
X0Y22575D01*
X0Y22674D01*
X0Y22774D01*
X0Y22874D01*
X0Y22974D01*
X0Y23074D01*
X0Y23174D01*
X0Y23274D01*
X0Y23374D01*
X0Y23473D01*
X0Y23573D01*
X0Y23673D01*
X0Y23773D01*
X0Y23873D01*
X0Y23973D01*
X0Y24073D01*
X0Y24173D01*
X0Y24273D01*
X0Y24372D01*
X0Y24472D01*
X0Y24572D01*
X0Y24672D01*
X0Y24772D01*
X0Y24872D01*
X0Y24972D01*
X0Y25072D01*
X0Y25172D01*
X0Y25271D01*
X0Y25371D01*
X0Y25471D01*
X0Y25571D01*
X0Y25671D01*
X0Y25771D01*
X0Y25871D01*
X0Y25971D01*
X0Y26071D01*
X0Y26170D01*
X0Y26270D01*
X0Y26370D01*
X0Y26470D01*
X0Y26570D01*
X0Y26670D01*
X0Y26770D01*
X0Y26870D01*
X0Y26970D01*
X0Y27069D01*
X0Y27169D01*
X0Y27269D01*
X0Y27369D01*
X0Y27469D01*
X0Y27569D01*
X0Y27669D01*
X0Y27769D01*
X0Y27869D01*
X0Y27968D01*
X0Y28068D01*
X0Y28168D01*
X0Y28268D01*
X0Y28368D01*
X0Y28468D01*
X0Y28568D01*
X0Y28668D01*
X0Y28768D01*
X0Y28867D01*
X0Y28967D01*
X0Y29067D01*
X0Y29167D01*
X0Y29267D01*
X0Y29367D01*
X0Y29467D01*
X0Y29567D01*
X0Y29667D01*
X0Y29766D01*
X0Y29866D01*
X0Y29966D01*
X0Y30066D01*
X0Y30166D01*
X0Y30266D01*
X0Y30366D01*
X0Y30466D01*
X0Y30565D01*
X0Y30665D01*
X0Y30765D01*
X0Y30865D01*
X0Y30965D01*
X0Y31065D01*
X0Y31165D01*
X0Y31265D01*
X0Y31365D01*
X0Y31464D01*
X0Y31564D01*
X0Y31664D01*
X0Y31764D01*
X0Y31864D01*
X0Y31964D01*
X0Y32064D01*
X0Y32164D01*
X0Y32264D01*
X0Y32363D01*
X0Y32463D01*
X0Y32563D01*
X0Y32663D01*
X0Y32763D01*
X0Y32863D01*
X0Y32963D01*
X0Y33063D01*
X0Y33163D01*
X0Y33262D01*
X0Y33362D01*
X0Y33462D01*
X0Y33562D01*
X0Y33662D01*
X0Y33762D01*
X0Y33862D01*
X0Y33962D01*
X0Y34062D01*
X0Y34161D01*
X0Y34261D01*
X0Y34361D01*
X0Y34461D01*
X0Y34561D01*
X0Y34661D01*
X0Y34761D01*
X0Y34861D01*
X0Y34961D01*
X0Y35060D01*
X0Y35160D01*
X0Y35260D01*
X0Y35360D01*
X0Y35460D01*
X0Y35560D01*
X0Y35660D01*
X0Y35760D01*
X0Y35860D01*
X0Y35959D01*
X0Y36059D01*
X0Y36159D01*
X0Y36259D01*
X0Y36359D01*
X0Y36459D01*
X0Y36559D01*
X0Y36659D01*
X0Y36759D01*
X0Y36858D01*
X0Y36958D01*
X0Y37058D01*
X0Y37158D01*
X0Y37258D01*
X0Y37358D01*
X0Y37458D01*
X0Y37558D01*
X0Y37658D01*
X0Y37757D01*
X0Y37857D01*
X0Y37957D01*
X0Y38057D01*
X0Y38157D01*
X0Y38257D01*
X0Y38357D01*
X0Y38457D01*
X0Y38556D01*
X0Y38656D01*
X0Y38756D01*
X0Y38856D01*
X0Y38956D01*
X0Y39056D01*
X0Y39156D01*
X0Y39256D01*
X0Y39356D01*
X0Y39455D01*
X0Y39555D01*
X0Y39655D01*
X0Y39755D01*
X0Y39855D01*
X0Y39955D01*
X0Y40055D01*
X0Y40155D01*
X0Y40255D01*
X0Y40354D01*
X0Y40454D01*
X0Y40554D01*
X0Y40654D01*
X0Y40754D01*
X0Y40854D01*
X0Y40954D01*
X0Y41054D01*
X0Y41154D01*
X0Y41253D01*
X0Y41353D01*
X0Y41453D01*
X0Y41553D01*
X0Y41653D01*
X0Y41753D01*
X0Y41853D01*
X0Y41953D01*
X0Y42053D01*
X0Y42152D01*
X0Y42252D01*
X0Y42352D01*
X0Y42452D01*
X0Y42552D01*
X0Y42652D01*
X0Y42752D01*
X0Y42852D01*
X0Y42952D01*
X0Y43051D01*
X0Y43151D01*
X0Y43251D01*
X0Y43351D01*
X0Y43451D01*
X0Y43551D01*
X0Y43651D01*
X0Y43751D01*
X0Y43851D01*
X0Y43950D01*
X0Y44050D01*
X0Y44150D01*
X0Y44250D01*
X0Y44350D01*
X0Y44450D01*
X0Y44550D01*
X0Y44650D01*
X0Y44750D01*
X0Y44849D01*
X0Y44949D01*
X0Y45049D01*
X0Y45149D01*
X0Y45249D01*
X0Y45349D01*
X0Y45449D01*
X0Y45549D01*
X0Y45649D01*
X0Y45748D01*
X0Y45848D01*
X0Y45948D01*
X0Y46048D01*
X0Y46148D01*
X0Y46248D01*
X0Y46348D01*
X0Y46448D01*
X0Y46548D01*
X0Y46647D01*
X0Y46747D01*
X0Y46847D01*
X0Y46947D01*
X0Y47047D01*
X0Y47147D01*
X0Y47247D01*
X0Y47347D01*
X0Y47447D01*
X0Y47546D01*
X0Y47646D01*
X0Y47746D01*
X0Y47846D01*
X0Y47946D01*
X0Y48046D01*
X0Y48146D01*
X0Y48246D01*
X0Y48346D01*
X0Y48445D01*
X0Y48545D01*
X0Y48645D01*
X0Y48745D01*
X0Y48845D01*
X0Y48945D01*
X0Y49045D01*
X0Y49145D01*
X0Y49244D01*
X0Y49344D01*
X0Y49444D01*
X0Y49544D01*
X0Y49644D01*
X0Y49744D01*
X0Y49844D01*
X0Y49944D01*
X0Y50044D01*
X0Y50143D01*
X0Y50243D01*
X0Y50343D01*
X0Y50443D01*
X0Y50543D01*
X0Y50643D01*
X0Y50743D01*
X0Y50843D01*
X0Y50943D01*
X0Y51043D01*
X0Y51142D01*
X0Y51242D01*
X0Y51342D01*
X0Y51442D01*
X0Y51542D01*
X0Y51642D01*
X0Y51742D01*
X0Y51842D01*
X0Y51942D01*
X0Y52041D01*
X0Y52141D01*
X0Y52241D01*
X0Y52341D01*
X0Y52441D01*
X0Y52541D01*
X0Y52641D01*
X0Y52741D01*
X0Y52841D01*
X0Y52940D01*
X0Y53040D01*
X0Y53140D01*
X0Y53240D01*
X0Y53340D01*
X100Y53340D01*
X200Y53340D01*
X300Y53340D01*
X400Y53340D01*
X500Y53340D01*
X599Y53340D01*
X699Y53340D01*
X799Y53340D01*
X899Y53340D01*
X999Y53340D01*
X1099Y53340D01*
X1199Y53340D01*
X1299Y53340D01*
X1399Y53340D01*
X1499Y53340D01*
X1599Y53340D01*
X1699Y53340D01*
X1798Y53340D01*
X1898Y53340D01*
X1998Y53340D01*
X2098Y53340D01*
X2198Y53340D01*
X2298Y53340D01*
X2398Y53340D01*
X2498Y53340D01*
X2598Y53340D01*
X2698Y53340D01*
X2798Y53340D01*
X2897Y53340D01*
X2997Y53340D01*
X3097Y53340D01*
X3197Y53340D01*
X3297Y53340D01*
X3397Y53340D01*
X3497Y53340D01*
X3597Y53340D01*
X3697Y53340D01*
X3797Y53340D01*
X3897Y53340D01*
X3996Y53340D01*
X4096Y53340D01*
X4196Y53340D01*
X4296Y53340D01*
X4396Y53340D01*
X4496Y53340D01*
X4596Y53340D01*
X4696Y53340D01*
X4796Y53340D01*
X4896Y53340D01*
X4996Y53340D01*
X5096Y53340D01*
X5195Y53340D01*
X5295Y53340D01*
X5395Y53340D01*
X5495Y53340D01*
X5595Y53340D01*
X5695Y53340D01*
X5795Y53340D01*
X5895Y53340D01*
X5995Y53340D01*
X6095Y53340D01*
X6195Y53340D01*
X6294Y53340D01*
X6394Y53340D01*
X6494Y53340D01*
X6594Y53340D01*
X6694Y53340D01*
X6794Y53340D01*
X6894Y53340D01*
X6994Y53340D01*
X7094Y53340D01*
X7194Y53340D01*
X7294Y53340D01*
X7393Y53340D01*
X7493Y53340D01*
X7593Y53340D01*
X7693Y53340D01*
X7793Y53340D01*
X7893Y53340D01*
X7993Y53340D01*
X8093Y53340D01*
X8193Y53340D01*
X8293Y53340D01*
X8393Y53340D01*
X8493Y53340D01*
X8592Y53340D01*
X8692Y53340D01*
X8792Y53340D01*
X8892Y53340D01*
X8992Y53340D01*
X9092Y53340D01*
X9192Y53340D01*
X9292Y53340D01*
X9392Y53340D01*
X9492Y53340D01*
X9592Y53340D01*
X9691Y53340D01*
X9791Y53340D01*
X9891Y53340D01*
X9991Y53340D01*
X10091Y53340D01*
X10191Y53340D01*
X10291Y53340D01*
X10391Y53340D01*
X10491Y53340D01*
X10591Y53340D01*
X10691Y53340D01*
X10791Y53340D01*
X10890Y53340D01*
X10990Y53340D01*
X11090Y53340D01*
X11190Y53340D01*
X11290Y53340D01*
X11390Y53340D01*
X11490Y53340D01*
X11590Y53340D01*
X11690Y53340D01*
X11790Y53340D01*
X11890Y53340D01*
X11989Y53340D01*
X12089Y53340D01*
X12189Y53340D01*
X12289Y53340D01*
X12389Y53340D01*
X12489Y53340D01*
X12589Y53340D01*
X12689Y53340D01*
X12789Y53340D01*
X12889Y53340D01*
X12989Y53340D01*
X13088Y53340D01*
X13188Y53340D01*
X13288Y53340D01*
X13388Y53340D01*
X13488Y53340D01*
X13588Y53340D01*
X13688Y53340D01*
X13788Y53340D01*
X13888Y53340D01*
X13988Y53340D01*
X14088Y53340D01*
X14188Y53340D01*
X14287Y53340D01*
X14387Y53340D01*
X14487Y53340D01*
X14587Y53340D01*
X14687Y53340D01*
X14787Y53340D01*
X14887Y53340D01*
X14987Y53340D01*
X15087Y53340D01*
X15187Y53340D01*
X15287Y53340D01*
X15386Y53340D01*
X15486Y53340D01*
X15586Y53340D01*
X15686Y53340D01*
X15786Y53340D01*
X15886Y53340D01*
X15986Y53340D01*
X16086Y53340D01*
X16186Y53340D01*
X16286Y53340D01*
X16386Y53340D01*
X16485Y53340D01*
X16585Y53340D01*
X16685Y53340D01*
X16785Y53340D01*
X16885Y53340D01*
X16985Y53340D01*
X17085Y53340D01*
X17185Y53340D01*
X17285Y53340D01*
X17385Y53340D01*
X17485Y53340D01*
X17585Y53340D01*
X17684Y53340D01*
X17784Y53340D01*
X17884Y53340D01*
X17984Y53340D01*
X18084Y53340D01*
X18184Y53340D01*
X18284Y53340D01*
X18384Y53340D01*
X18484Y53340D01*
X18584Y53340D01*
X18684Y53340D01*
X18783Y53340D01*
X18883Y53340D01*
X18983Y53340D01*
X19083Y53340D01*
X19183Y53340D01*
X19283Y53340D01*
X19383Y53340D01*
X19483Y53340D01*
X19583Y53340D01*
X19683Y53340D01*
X19783Y53340D01*
X19883Y53340D01*
X19982Y53340D01*
X20082Y53340D01*
X20182Y53340D01*
X20282Y53340D01*
X20382Y53340D01*
X20482Y53340D01*
X20582Y53340D01*
X20682Y53340D01*
X20782Y53340D01*
X20882Y53340D01*
X20982Y53340D01*
X21081Y53340D01*
X21181Y53340D01*
X21281Y53340D01*
X21381Y53340D01*
X21481Y53340D01*
X21581Y53340D01*
X21681Y53340D01*
X21781Y53340D01*
X21881Y53340D01*
X21981Y53340D01*
X22081Y53340D01*
X22180Y53340D01*
X22280Y53340D01*
X22380Y53340D01*
X22480Y53340D01*
X22580Y53340D01*
X22680Y53340D01*
X22780Y53340D01*
X22880Y53340D01*
X22980Y53340D01*
X23080Y53340D01*
X23180Y53340D01*
X23280Y53340D01*
X23379Y53340D01*
X23479Y53340D01*
X23579Y53340D01*
X23679Y53340D01*
X23779Y53340D01*
X23879Y53340D01*
X23979Y53340D01*
X24079Y53340D01*
X24179Y53340D01*
X24279Y53340D01*
X24379Y53340D01*
X24478Y53340D01*
X24578Y53340D01*
X24678Y53340D01*
X24778Y53340D01*
X24878Y53340D01*
X24978Y53340D01*
X25078Y53340D01*
X25178Y53340D01*
X25278Y53340D01*
X25378Y53340D01*
X25478Y53340D01*
X25578Y53340D01*
X25677Y53340D01*
X25777Y53340D01*
X25877Y53340D01*
X25977Y53340D01*
X26077Y53340D01*
X26177Y53340D01*
X26277Y53340D01*
X26377Y53340D01*
X26477Y53340D01*
X26577Y53340D01*
X26677Y53340D01*
X26776Y53340D01*
X26876Y53340D01*
X26976Y53340D01*
X27076Y53340D01*
X27176Y53340D01*
X27276Y53340D01*
X27376Y53340D01*
X27476Y53340D01*
X27576Y53340D01*
X27676Y53340D01*
X27776Y53340D01*
X27875Y53340D01*
X27975Y53340D01*
X28075Y53340D01*
X28175Y53340D01*
X28275Y53340D01*
X28375Y53340D01*
X28475Y53340D01*
X28575Y53340D01*
X28675Y53340D01*
X28775Y53340D01*
X28875Y53340D01*
X28975Y53340D01*
X29074Y53340D01*
X29174Y53340D01*
X29274Y53340D01*
X29374Y53340D01*
X29474Y53340D01*
X29574Y53340D01*
X29674Y53340D01*
X29774Y53340D01*
X29874Y53340D01*
X29974Y53340D01*
X30074Y53340D01*
X30173Y53340D01*
X30273Y53340D01*
X30373Y53340D01*
X30473Y53340D01*
X30573Y53340D01*
X30673Y53340D01*
X30773Y53340D01*
X30873Y53340D01*
X30973Y53340D01*
X31073Y53340D01*
X31173Y53340D01*
X31273Y53340D01*
X31372Y53340D01*
X31472Y53340D01*
X31572Y53340D01*
X31672Y53340D01*
X31772Y53340D01*
X31872Y53340D01*
X31972Y53340D01*
X32072Y53340D01*
X32172Y53340D01*
X32272Y53340D01*
X32372Y53340D01*
X32471Y53340D01*
X32571Y53340D01*
X32671Y53340D01*
X32771Y53340D01*
X32871Y53340D01*
X32971Y53340D01*
X33071Y53340D01*
X33171Y53340D01*
X33271Y53340D01*
X33371Y53340D01*
X33471Y53340D01*
X33571Y53340D01*
X33670Y53340D01*
X33770Y53340D01*
X33870Y53340D01*
X33970Y53340D01*
X34070Y53340D01*
X34170Y53340D01*
X34270Y53340D01*
X34370Y53340D01*
X34470Y53340D01*
X34570Y53340D01*
X34670Y53340D01*
X34769Y53340D01*
X34869Y53340D01*
X34969Y53340D01*
X35069Y53340D01*
X35169Y53340D01*
X35269Y53340D01*
X35369Y53340D01*
X35469Y53340D01*
X35569Y53340D01*
X35669Y53340D01*
X35769Y53340D01*
X35868Y53340D01*
X35968Y53340D01*
X36068Y53340D01*
X36168Y53340D01*
X36268Y53340D01*
X36368Y53340D01*
X36468Y53340D01*
X36568Y53340D01*
X36668Y53340D01*
X36768Y53340D01*
X36868Y53340D01*
X36968Y53340D01*
X37067Y53340D01*
X37167Y53340D01*
X37267Y53340D01*
X37367Y53340D01*
X37467Y53340D01*
X37567Y53340D01*
X37667Y53340D01*
X37767Y53340D01*
X37867Y53340D01*
X37967Y53340D01*
X38067Y53340D01*
X38166Y53340D01*
X38266Y53340D01*
X38366Y53340D01*
X38466Y53340D01*
X38566Y53340D01*
X38666Y53340D01*
X38766Y53340D01*
X38866Y53340D01*
X38966Y53340D01*
X39066Y53340D01*
X39166Y53340D01*
X39265Y53340D01*
X39365Y53340D01*
X39465Y53340D01*
X39565Y53340D01*
X39665Y53340D01*
X39765Y53340D01*
X39865Y53340D01*
X39965Y53340D01*
X40065Y53340D01*
X40165Y53340D01*
X40265Y53340D01*
X40365Y53340D01*
X40464Y53340D01*
X40564Y53340D01*
X40664Y53340D01*
X40764Y53340D01*
X40864Y53340D01*
X40964Y53340D01*
X41064Y53340D01*
X41164Y53340D01*
X41264Y53340D01*
X41364Y53340D01*
X41464Y53340D01*
X41563Y53340D01*
X41663Y53340D01*
X41763Y53340D01*
X41863Y53340D01*
X41963Y53340D01*
X42063Y53340D01*
X42163Y53340D01*
X42263Y53340D01*
X42363Y53340D01*
X42463Y53340D01*
X42563Y53340D01*
X42663Y53340D01*
X42762Y53340D01*
X42862Y53340D01*
X42962Y53340D01*
X43062Y53340D01*
X43162Y53340D01*
X43262Y53340D01*
X43362Y53340D01*
X43462Y53340D01*
X43562Y53340D01*
X43662Y53340D01*
X43762Y53340D01*
X43861Y53340D01*
X43961Y53340D01*
X44061Y53340D01*
X44161Y53340D01*
X44261Y53340D01*
X44361Y53340D01*
X44461Y53340D01*
X44561Y53340D01*
X44661Y53340D01*
X44761Y53340D01*
X44861Y53340D01*
X44961Y53340D01*
X45060Y53340D01*
X45160Y53340D01*
X45260Y53340D01*
X45360Y53340D01*
X45460Y53340D01*
X45560Y53340D01*
X45660Y53340D01*
X45760Y53340D01*
X45860Y53340D01*
X45960Y53340D01*
X46060Y53340D01*
X46159Y53340D01*
X46259Y53340D01*
X46359Y53340D01*
X46459Y53340D01*
X46559Y53340D01*
X46659Y53340D01*
X46759Y53340D01*
X46859Y53340D01*
X46959Y53340D01*
X47059Y53340D01*
X47159Y53340D01*
X47259Y53340D01*
X47358Y53340D01*
X47458Y53340D01*
X47558Y53340D01*
X47658Y53340D01*
X47758Y53340D01*
X47858Y53340D01*
X47958Y53340D01*
X48058Y53340D01*
X48158Y53340D01*
X48258Y53340D01*
X48358Y53340D01*
X48457Y53340D01*
X48557Y53340D01*
X48657Y53340D01*
X48757Y53340D01*
X48857Y53340D01*
X48957Y53340D01*
X49057Y53340D01*
X49157Y53340D01*
X49257Y53340D01*
X49357Y53340D01*
X49457Y53340D01*
X49557Y53340D01*
X49656Y53340D01*
X49756Y53340D01*
X49856Y53340D01*
X49956Y53340D01*
X50056Y53340D01*
X50156Y53340D01*
X50256Y53340D01*
X50356Y53340D01*
X50456Y53340D01*
X50556Y53340D01*
X50656Y53340D01*
X50755Y53340D01*
X50855Y53340D01*
X50955Y53340D01*
X51055Y53340D01*
X51155Y53340D01*
X51255Y53340D01*
X51355Y53340D01*
X51455Y53340D01*
X51555Y53340D01*
X51655Y53340D01*
X51755Y53340D01*
X51855Y53340D01*
X51954Y53340D01*
X52054Y53340D01*
X52154Y53340D01*
X52254Y53340D01*
X52354Y53340D01*
X52454Y53340D01*
X52554Y53340D01*
X52654Y53340D01*
X52754Y53340D01*
X52854Y53340D01*
X52954Y53340D01*
X53053Y53340D01*
X53153Y53340D01*
X53253Y53340D01*
X53353Y53340D01*
X53453Y53340D01*
X53553Y53340D01*
X53653Y53340D01*
X53753Y53340D01*
X53853Y53340D01*
X53953Y53340D01*
X54053Y53340D01*
X54153Y53340D01*
X54252Y53340D01*
X54352Y53340D01*
X54452Y53340D01*
X54552Y53340D01*
X54652Y53340D01*
X54752Y53340D01*
X54852Y53340D01*
X54952Y53340D01*
X55052Y53340D01*
X55152Y53340D01*
X55252Y53340D01*
X55351Y53340D01*
X55451Y53340D01*
X55551Y53340D01*
X55651Y53340D01*
X55751Y53340D01*
X55851Y53340D01*
X55951Y53340D01*
X56051Y53340D01*
X56151Y53340D01*
X56251Y53340D01*
X56351Y53340D01*
X56451Y53340D01*
X56550Y53340D01*
X56650Y53340D01*
X56750Y53340D01*
X56850Y53340D01*
X56950Y53340D01*
X57050Y53340D01*
X57150Y53340D01*
X57150Y53240D01*
X57150Y53140D01*
X57150Y53040D01*
X57150Y52940D01*
X57150Y52841D01*
X57150Y52741D01*
X57150Y52641D01*
X57150Y52541D01*
X57150Y52441D01*
X57150Y52341D01*
X57150Y52241D01*
X57150Y52141D01*
X57150Y52041D01*
X57150Y51942D01*
X57150Y51842D01*
X57150Y51742D01*
X57150Y51642D01*
X57150Y51542D01*
X57150Y51442D01*
X57150Y51342D01*
X57150Y51242D01*
X57150Y51142D01*
X57150Y51043D01*
X57150Y50943D01*
X57150Y50843D01*
X57150Y50743D01*
X57150Y50643D01*
X57150Y50543D01*
X57150Y50443D01*
X57150Y50343D01*
X57150Y50243D01*
X57150Y50144D01*
X57150Y50044D01*
X57150Y49944D01*
X57150Y49844D01*
X57150Y49744D01*
X57150Y49644D01*
X57150Y49544D01*
X57150Y49444D01*
X57150Y49345D01*
X57150Y49245D01*
X57150Y49145D01*
X57150Y49045D01*
X57150Y48945D01*
X57150Y48845D01*
X57150Y48745D01*
X57150Y48645D01*
X57150Y48545D01*
X57150Y48446D01*
X57150Y48346D01*
X57150Y48246D01*
X57150Y48146D01*
X57150Y48046D01*
X57150Y47946D01*
X57150Y47846D01*
X57150Y47746D01*
X57150Y47646D01*
X57150Y47547D01*
X57150Y47447D01*
X57150Y47347D01*
X57150Y47247D01*
X57150Y47147D01*
X57150Y47047D01*
X57150Y46947D01*
X57150Y46847D01*
X57150Y46747D01*
X57150Y46648D01*
X57150Y46548D01*
X57150Y46448D01*
X57150Y46348D01*
X57150Y46248D01*
X57150Y46148D01*
X57150Y46048D01*
X57150Y45948D01*
X57150Y45848D01*
X57150Y45749D01*
X57150Y45649D01*
X57150Y45549D01*
X57150Y45449D01*
X57150Y45349D01*
X57150Y45249D01*
X57150Y45149D01*
X57150Y45049D01*
X57150Y44949D01*
X57150Y44850D01*
X57150Y44750D01*
X57150Y44650D01*
X57150Y44550D01*
X57150Y44450D01*
X57150Y44350D01*
X57150Y44250D01*
X57150Y44150D01*
X57150Y44050D01*
X57150Y43951D01*
X57150Y43851D01*
X57150Y43751D01*
X57150Y43651D01*
X57150Y43551D01*
X57150Y43451D01*
X57150Y43351D01*
X57150Y43251D01*
X57150Y43152D01*
X57150Y43052D01*
X57150Y42952D01*
X57150Y42852D01*
X57150Y42752D01*
X57150Y42652D01*
X57150Y42552D01*
X57150Y42452D01*
X57150Y42352D01*
X57150Y42253D01*
X57150Y42153D01*
X57150Y42053D01*
X57150Y41953D01*
X57150Y41853D01*
X57150Y41753D01*
X57150Y41653D01*
X57150Y41553D01*
X57150Y41453D01*
X57150Y41354D01*
X57150Y41254D01*
X57150Y41154D01*
X57150Y41054D01*
X57150Y40954D01*
X57150Y40854D01*
X57150Y40754D01*
X57150Y40654D01*
X57150Y40554D01*
X57150Y40455D01*
X57150Y40355D01*
X57150Y40255D01*
X57150Y40155D01*
X57150Y40055D01*
X57150Y39955D01*
X57150Y39855D01*
X57150Y39755D01*
X57150Y39655D01*
X57150Y39556D01*
X57150Y39456D01*
X57150Y39356D01*
X57150Y39256D01*
X57150Y39156D01*
X57150Y39056D01*
X57150Y38956D01*
X57150Y38856D01*
X57150Y38756D01*
X57150Y38657D01*
X57150Y38557D01*
X57150Y38457D01*
X57150Y38357D01*
X57150Y38257D01*
X57150Y38157D01*
X57150Y38057D01*
X57150Y37957D01*
X57150Y37857D01*
X57150Y37758D01*
X57150Y37658D01*
X57150Y37558D01*
X57150Y37458D01*
X57150Y37358D01*
X57150Y37258D01*
X57150Y37158D01*
X57150Y37058D01*
X57150Y36959D01*
X57150Y36859D01*
X57150Y36759D01*
X57150Y36659D01*
X57150Y36559D01*
X57150Y36459D01*
X57150Y36359D01*
X57150Y36259D01*
X57150Y36159D01*
X57150Y36060D01*
X57150Y35960D01*
X57150Y35860D01*
X57150Y35760D01*
X57150Y35660D01*
X57150Y35560D01*
X57150Y35460D01*
X57150Y35360D01*
X57150Y35260D01*
X57150Y35161D01*
X57150Y35061D01*
X57150Y34961D01*
X57150Y34861D01*
X57150Y34761D01*
X57150Y34661D01*
X57150Y34561D01*
X57150Y34461D01*
X57150Y34361D01*
X57150Y34262D01*
X57150Y34162D01*
X57150Y34062D01*
X57150Y33962D01*
X57150Y33862D01*
X57150Y33762D01*
X57150Y33662D01*
X57150Y33562D01*
X57150Y33462D01*
X57150Y33363D01*
X57150Y33263D01*
X57150Y33163D01*
X57150Y33063D01*
X57150Y32963D01*
X57150Y32863D01*
X57150Y32763D01*
X57150Y32663D01*
X57150Y32563D01*
X57150Y32464D01*
X57150Y32364D01*
X57150Y32264D01*
X57150Y32164D01*
X57150Y32064D01*
X57150Y31964D01*
X57150Y31864D01*
X57150Y31764D01*
X57150Y31664D01*
X57150Y31565D01*
X57150Y31465D01*
X57150Y31365D01*
X57150Y31265D01*
X57150Y31165D01*
X57150Y31065D01*
X57150Y30965D01*
X57150Y30865D01*
X57150Y30765D01*
X57150Y30666D01*
X57150Y30566D01*
X57150Y30466D01*
X57150Y30366D01*
X57150Y30266D01*
X57150Y30166D01*
X57150Y30066D01*
X57150Y29966D01*
X57150Y29867D01*
X57150Y29767D01*
X57150Y29667D01*
X57150Y29567D01*
X57150Y29467D01*
X57150Y29367D01*
X57150Y29267D01*
X57150Y29167D01*
X57150Y29067D01*
X57150Y28968D01*
X57150Y28868D01*
X57150Y28768D01*
X57150Y28668D01*
X57150Y28568D01*
X57150Y28468D01*
X57150Y28368D01*
X57150Y28268D01*
X57150Y28168D01*
X57150Y28069D01*
X57150Y27969D01*
X57150Y27869D01*
X57150Y27769D01*
X57150Y27669D01*
X57150Y27569D01*
X57150Y27469D01*
X57150Y27369D01*
X57150Y27269D01*
X57150Y27170D01*
X57150Y27070D01*
X57150Y26970D01*
X57150Y26870D01*
X57150Y26770D01*
X57150Y26670D01*
X57150Y26570D01*
X57150Y26470D01*
X57150Y26370D01*
X57150Y26271D01*
X57150Y26171D01*
X57150Y26071D01*
X57150Y25971D01*
X57150Y25871D01*
X57150Y25771D01*
X57150Y25671D01*
X57150Y25571D01*
X57150Y25471D01*
X57150Y25372D01*
X57150Y25272D01*
X57150Y25172D01*
X57150Y25072D01*
X57150Y24972D01*
X57150Y24872D01*
X57150Y24772D01*
X57150Y24672D01*
X57150Y24572D01*
X57150Y24473D01*
X57150Y24373D01*
X57150Y24273D01*
X57150Y24173D01*
X57150Y24073D01*
X57150Y23973D01*
X57150Y23873D01*
X57150Y23773D01*
X57150Y23673D01*
X57150Y23574D01*
X57150Y23474D01*
X57150Y23374D01*
X57150Y23274D01*
X57150Y23174D01*
X57150Y23074D01*
X57150Y22974D01*
X57150Y22874D01*
X57150Y22775D01*
X57150Y22675D01*
X57150Y22575D01*
X57150Y22475D01*
X57150Y22375D01*
X57150Y22275D01*
X57150Y22175D01*
X57150Y22075D01*
X57150Y21975D01*
X57150Y21876D01*
X57150Y21776D01*
X57150Y21676D01*
X57150Y21576D01*
X57150Y21476D01*
X57150Y21376D01*
X57150Y21276D01*
X57150Y21176D01*
X57150Y21076D01*
X57150Y20977D01*
X57150Y20877D01*
X57150Y20777D01*
X57150Y20677D01*
X57150Y20577D01*
X57150Y20477D01*
X57150Y20377D01*
X57150Y20277D01*
X57150Y20177D01*
X57150Y20078D01*
X57150Y19978D01*
X57150Y19878D01*
X57150Y19778D01*
X57150Y19678D01*
X57150Y19578D01*
X57150Y19478D01*
X57150Y19378D01*
X57150Y19278D01*
X57150Y19179D01*
X57150Y19079D01*
X57150Y18979D01*
X57150Y18879D01*
X57150Y18779D01*
X57150Y18679D01*
X57150Y18579D01*
X57150Y18479D01*
X57150Y18379D01*
X57150Y18280D01*
X57150Y18180D01*
X57150Y18080D01*
X57150Y17980D01*
X57150Y17880D01*
X57150Y17780D01*
X57150Y17680D01*
X57150Y17580D01*
X57150Y17480D01*
X57150Y17381D01*
X57150Y17281D01*
X57150Y17181D01*
X57150Y17081D01*
X57150Y16981D01*
X57150Y16881D01*
X57150Y16781D01*
X57150Y16681D01*
X57150Y16581D01*
X57150Y16482D01*
X57150Y16382D01*
X57150Y16282D01*
X57150Y16182D01*
X57150Y16082D01*
X57150Y15982D01*
X57150Y15882D01*
X57150Y15782D01*
X57150Y15682D01*
X57150Y15583D01*
X57150Y15483D01*
X57150Y15383D01*
X57150Y15283D01*
X57150Y15183D01*
X57150Y15083D01*
X57150Y14983D01*
X57150Y14883D01*
X57150Y14784D01*
X57150Y14684D01*
X57150Y14584D01*
X57150Y14484D01*
X57150Y14384D01*
X57150Y14284D01*
X57150Y14184D01*
X57150Y14084D01*
X57150Y13984D01*
X57150Y13885D01*
X57150Y13785D01*
X57150Y13685D01*
X57150Y13585D01*
X57150Y13485D01*
X57150Y13385D01*
X57150Y13285D01*
X57150Y13185D01*
X57150Y13085D01*
X57150Y12986D01*
X57150Y12886D01*
X57150Y12786D01*
X57150Y12686D01*
X57150Y12586D01*
X57150Y12486D01*
X57150Y12386D01*
X57150Y12286D01*
X57150Y12186D01*
X57150Y12087D01*
X57150Y11987D01*
X57150Y11887D01*
X57150Y11787D01*
X57150Y11687D01*
X57150Y11587D01*
X57150Y11487D01*
X57150Y11387D01*
X57150Y11287D01*
X57150Y11188D01*
X57150Y11088D01*
X57150Y10988D01*
X57150Y10888D01*
X57150Y10788D01*
X57150Y10688D01*
X57150Y10588D01*
X57150Y10488D01*
X57150Y10388D01*
X57150Y10289D01*
X57150Y10189D01*
X57150Y10089D01*
X57150Y9989D01*
X57150Y9889D01*
X57150Y9789D01*
X57150Y9689D01*
X57150Y9589D01*
X57150Y9489D01*
X57150Y9390D01*
X57150Y9290D01*
X57150Y9190D01*
X57150Y9090D01*
X57150Y8990D01*
X57150Y8890D01*
X57150Y8790D01*
X57150Y8690D01*
X57150Y8590D01*
X57150Y8491D01*
X57150Y8391D01*
X57150Y8291D01*
X57150Y8191D01*
X57150Y8091D01*
X57150Y7991D01*
X57150Y7891D01*
X57150Y7791D01*
X57150Y7691D01*
X57150Y7592D01*
X57150Y7492D01*
X57150Y7392D01*
X57150Y7292D01*
X57150Y7192D01*
X57150Y7092D01*
X57150Y6992D01*
X57150Y6892D01*
X57150Y6792D01*
X57150Y6693D01*
X57150Y6593D01*
X57150Y6493D01*
X57150Y6393D01*
X57150Y6293D01*
X57150Y6193D01*
X57150Y6093D01*
X57150Y5993D01*
X57150Y5893D01*
X57150Y5794D01*
X57150Y5694D01*
X57150Y5594D01*
X57150Y5494D01*
X57150Y5394D01*
X57150Y5294D01*
X57150Y5194D01*
X57150Y5094D01*
X57150Y4994D01*
X57150Y4895D01*
X57150Y4795D01*
X57150Y4695D01*
X57150Y4595D01*
X57150Y4495D01*
X57150Y4395D01*
X57150Y4295D01*
X57150Y4195D01*
X57150Y4096D01*
X57150Y3996D01*
X57150Y3896D01*
X57150Y3796D01*
X57150Y3696D01*
X57150Y3596D01*
X57150Y3496D01*
X57150Y3396D01*
X57150Y3296D01*
X57150Y3197D01*
X57150Y3097D01*
X57150Y2997D01*
X57150Y2897D01*
X57150Y2797D01*
X57150Y2697D01*
X57150Y2597D01*
X57150Y2497D01*
X57150Y2397D01*
X57150Y2297D01*
X57150Y2198D01*
X57150Y2098D01*
X57150Y1998D01*
X57150Y1898D01*
X57150Y1798D01*
X57150Y1698D01*
X57150Y1598D01*
X57150Y1498D01*
X57150Y1398D01*
X57150Y1299D01*
X57150Y1199D01*
X57150Y1099D01*
X57150Y999D01*
X57150Y899D01*
X57150Y799D01*
X57150Y699D01*
X57150Y599D01*
X57150Y499D01*
X57150Y400D01*
X57150Y300D01*
X57150Y200D01*
X57150Y100D01*
X57150Y0D01*
X57050Y0D01*
X56950Y0D01*
X56850Y0D01*
X56750Y0D01*
X56650Y0D01*
X56551Y0D01*
X56451Y0D01*
X56351Y0D01*
X56251Y0D01*
X56151Y0D01*
X56051Y0D01*
X55951Y0D01*
X55851Y0D01*
X55751Y0D01*
X55651Y0D01*
X55551Y0D01*
X55451Y0D01*
X55352Y0D01*
X55252Y0D01*
X55152Y0D01*
X55052Y0D01*
X54952Y0D01*
X54852Y0D01*
X54752Y0D01*
X54652Y0D01*
X54552Y0D01*
X54452Y0D01*
X54352Y0D01*
X54253Y0D01*
X54153Y0D01*
X54053Y0D01*
X53953Y0D01*
X53853Y0D01*
X53753Y0D01*
X53653Y0D01*
X53553Y0D01*
X53453Y0D01*
X53353Y0D01*
X53253Y0D01*
X53154Y0D01*
X53054Y0D01*
X52954Y0D01*
X52854Y0D01*
X52754Y0D01*
X52654Y0D01*
X52554Y0D01*
X52454Y0D01*
X52354Y0D01*
X52254Y0D01*
X52154Y0D01*
X52054Y0D01*
X51955Y0D01*
X51855Y0D01*
X51755Y0D01*
X51655Y0D01*
X51555Y0D01*
X51455Y0D01*
X51355Y0D01*
X51255Y0D01*
X51155Y0D01*
X51055Y0D01*
X50955Y0D01*
X50856Y0D01*
X50756Y0D01*
X50656Y0D01*
X50556Y0D01*
X50456Y0D01*
X50356Y0D01*
X50256Y0D01*
X50156Y0D01*
X50056Y0D01*
X49956Y0D01*
X49856Y0D01*
X49757Y0D01*
X49657Y0D01*
X49557Y0D01*
X49457Y0D01*
X49357Y0D01*
X49257Y0D01*
X49157Y0D01*
X49057Y0D01*
X48957Y0D01*
X48857Y0D01*
X48757Y0D01*
X48657Y0D01*
X48558Y0D01*
X48458Y0D01*
X48358Y0D01*
X48258Y0D01*
X48158Y0D01*
X48058Y0D01*
X47958Y0D01*
X47858Y0D01*
X47758Y0D01*
X47658Y0D01*
X47558Y0D01*
X47459Y0D01*
X47359Y0D01*
X47259Y0D01*
X47159Y0D01*
X47059Y0D01*
X46959Y0D01*
X46859Y0D01*
X46759Y0D01*
X46659Y0D01*
X46559Y0D01*
X46459Y0D01*
X46359Y0D01*
X46260Y0D01*
X46160Y0D01*
X46060Y0D01*
X45960Y0D01*
X45860Y0D01*
X45760Y0D01*
X45660Y0D01*
X45560Y0D01*
X45460Y0D01*
X45360Y0D01*
X45260Y0D01*
X45161Y0D01*
X45061Y0D01*
X44961Y0D01*
X44861Y0D01*
X44761Y0D01*
X44661Y0D01*
X44561Y0D01*
X44461Y0D01*
X44361Y0D01*
X44261Y0D01*
X44161Y0D01*
X44062Y0D01*
X43962Y0D01*
X43862Y0D01*
X43762Y0D01*
X43662Y0D01*
X43562Y0D01*
X43462Y0D01*
X43362Y0D01*
X43262Y0D01*
X43162Y0D01*
X43062Y0D01*
X42962Y0D01*
X42863Y0D01*
X42763Y0D01*
X42663Y0D01*
X42563Y0D01*
X42463Y0D01*
X42363Y0D01*
X42263Y0D01*
X42163Y0D01*
X42063Y0D01*
X41963Y0D01*
X41863Y0D01*
X41764Y0D01*
X41664Y0D01*
X41564Y0D01*
X41464Y0D01*
X41364Y0D01*
X41264Y0D01*
X41164Y0D01*
X41064Y0D01*
X40964Y0D01*
X40864Y0D01*
X40764Y0D01*
X40665Y0D01*
X40565Y0D01*
X40465Y0D01*
X40365Y0D01*
X40265Y0D01*
X40165Y0D01*
X40065Y0D01*
X39965Y0D01*
X39865Y0D01*
X39765Y0D01*
X39665Y0D01*
X39565Y0D01*
X39466Y0D01*
X39366Y0D01*
X39266Y0D01*
X39166Y0D01*
X39066Y0D01*
X38966Y0D01*
X38866Y0D01*
X38766Y0D01*
X38666Y0D01*
X38566Y0D01*
X38466Y0D01*
X38367Y0D01*
X38267Y0D01*
X38167Y0D01*
X38067Y0D01*
X37967Y0D01*
X37867Y0D01*
X37767Y0D01*
X37667Y0D01*
X37567Y0D01*
X37467Y0D01*
X37367Y0D01*
X37267Y0D01*
X37168Y0D01*
X37068Y0D01*
X36968Y0D01*
X36868Y0D01*
X36768Y0D01*
X36668Y0D01*
X36568Y0D01*
X36468Y0D01*
X36368Y0D01*
X36268Y0D01*
X36168Y0D01*
X36069Y0D01*
X35969Y0D01*
X35869Y0D01*
X35769Y0D01*
X35669Y0D01*
X35569Y0D01*
X35469Y0D01*
X35369Y0D01*
X35269Y0D01*
X35169Y0D01*
X35069Y0D01*
X34970Y0D01*
X34870Y0D01*
X34770Y0D01*
X34670Y0D01*
X34570Y0D01*
X34470Y0D01*
X34370Y0D01*
X34270Y0D01*
X34170Y0D01*
X34070Y0D01*
X33970Y0D01*
X33870Y0D01*
X33771Y0D01*
X33671Y0D01*
X33571Y0D01*
X33471Y0D01*
X33371Y0D01*
X33271Y0D01*
X33171Y0D01*
X33071Y0D01*
X32971Y0D01*
X32871Y0D01*
X32771Y0D01*
X32672Y0D01*
X32572Y0D01*
X32472Y0D01*
X32372Y0D01*
X32272Y0D01*
X32172Y0D01*
X32072Y0D01*
X31972Y0D01*
X31872Y0D01*
X31772Y0D01*
X31672Y0D01*
X31572Y0D01*
X31473Y0D01*
X31373Y0D01*
X31273Y0D01*
X31173Y0D01*
X31073Y0D01*
X30973Y0D01*
X30873Y0D01*
X30773Y0D01*
X30673Y0D01*
X30573Y0D01*
X30473Y0D01*
X30374Y0D01*
X30274Y0D01*
X30174Y0D01*
X30074Y0D01*
X29974Y0D01*
X29874Y0D01*
X29774Y0D01*
X29674Y0D01*
X29574Y0D01*
X29474Y0D01*
X29374Y0D01*
X29275Y0D01*
X29175Y0D01*
X29075Y0D01*
X28975Y0D01*
X28875Y0D01*
X28775Y0D01*
X28675Y0D01*
X28575Y0D01*
X28475Y0D01*
X28375Y0D01*
X28275Y0D01*
X28175Y0D01*
X28076Y0D01*
X27976Y0D01*
X27876Y0D01*
X27776Y0D01*
X27676Y0D01*
X27576Y0D01*
X27476Y0D01*
X27376Y0D01*
X27276Y0D01*
X27176Y0D01*
X27076Y0D01*
X26977Y0D01*
X26877Y0D01*
X26777Y0D01*
X26677Y0D01*
X26577Y0D01*
X26477Y0D01*
X26377Y0D01*
X26277Y0D01*
X26177Y0D01*
X26077Y0D01*
X25977Y0D01*
X25877Y0D01*
X25778Y0D01*
X25678Y0D01*
X25578Y0D01*
X25478Y0D01*
X25378Y0D01*
X25278Y0D01*
X25178Y0D01*
X25078Y0D01*
X24978Y0D01*
X24878Y0D01*
X24778Y0D01*
X24679Y0D01*
X24579Y0D01*
X24479Y0D01*
X24379Y0D01*
X24279Y0D01*
X24179Y0D01*
X24079Y0D01*
X23979Y0D01*
X23879Y0D01*
X23779Y0D01*
X23679Y0D01*
X23579Y0D01*
X23480Y0D01*
X23380Y0D01*
X23280Y0D01*
X23180Y0D01*
X23080Y0D01*
X22980Y0D01*
X22880Y0D01*
X22780Y0D01*
X22680Y0D01*
X22580Y0D01*
X22480Y0D01*
X22381Y0D01*
X22281Y0D01*
X22181Y0D01*
X22081Y0D01*
X21981Y0D01*
X21881Y0D01*
X21781Y0D01*
X21681Y0D01*
X21581Y0D01*
X21481Y0D01*
X21381Y0D01*
X21282Y0D01*
X21182Y0D01*
X21082Y0D01*
X20982Y0D01*
X20882Y0D01*
X20782Y0D01*
X20682Y0D01*
X20582Y0D01*
X20482Y0D01*
X20382Y0D01*
X20282Y0D01*
X20182Y0D01*
X20083Y0D01*
X19983Y0D01*
X19883Y0D01*
X19783Y0D01*
X19683Y0D01*
X19583Y0D01*
X19483Y0D01*
X19383Y0D01*
X19283Y0D01*
X19183Y0D01*
X19083Y0D01*
X18984Y0D01*
X18884Y0D01*
X18784Y0D01*
X18684Y0D01*
X18584Y0D01*
X18484Y0D01*
X18384Y0D01*
X18284Y0D01*
X18184Y0D01*
X18084Y0D01*
X17984Y0D01*
X17885Y0D01*
X17785Y0D01*
X17685Y0D01*
X17585Y0D01*
X17485Y0D01*
X17385Y0D01*
X17285Y0D01*
X17185Y0D01*
X17085Y0D01*
X16985Y0D01*
X16885Y0D01*
X16785Y0D01*
X16686Y0D01*
X16586Y0D01*
X16486Y0D01*
X16386Y0D01*
X16286Y0D01*
X16186Y0D01*
X16086Y0D01*
X15986Y0D01*
X15886Y0D01*
X15786Y0D01*
X15686Y0D01*
X15587Y0D01*
X15487Y0D01*
X15387Y0D01*
X15287Y0D01*
X15187Y0D01*
X15087Y0D01*
X14987Y0D01*
X14887Y0D01*
X14787Y0D01*
X14687Y0D01*
X14587Y0D01*
X14487Y0D01*
X14388Y0D01*
X14288Y0D01*
X14188Y0D01*
X14088Y0D01*
X13988Y0D01*
X13888Y0D01*
X13788Y0D01*
X13688Y0D01*
X13588Y0D01*
X13488Y0D01*
X13388Y0D01*
X13289Y0D01*
X13189Y0D01*
X13089Y0D01*
X12989Y0D01*
X12889Y0D01*
X12789Y0D01*
X12689Y0D01*
X12589Y0D01*
X12489Y0D01*
X12389Y0D01*
X12289Y0D01*
X12189Y0D01*
X12090Y0D01*
X11990Y0D01*
X11890Y0D01*
X11790Y0D01*
X11690Y0D01*
X11590Y0D01*
X11490Y0D01*
X11390Y0D01*
X11290Y0D01*
X11190Y0D01*
X11090Y0D01*
X10991Y0D01*
X10891Y0D01*
X10791Y0D01*
X10691Y0D01*
X10591Y0D01*
X10491Y0D01*
X10391Y0D01*
X10291Y0D01*
X10191Y0D01*
X10091Y0D01*
X9991Y0D01*
X9891Y0D01*
X9792Y0D01*
X9692Y0D01*
X9592Y0D01*
X9492Y0D01*
X9392Y0D01*
X9292Y0D01*
X9192Y0D01*
X9092Y0D01*
X8992Y0D01*
X8892Y0D01*
X8792Y0D01*
X8693Y0D01*
X8593Y0D01*
X8493Y0D01*
X8393Y0D01*
X8293Y0D01*
X8193Y0D01*
X8093Y0D01*
X7993Y0D01*
X7893Y0D01*
X7793Y0D01*
X7693Y0D01*
X7593Y0D01*
X7494Y0D01*
X7394Y0D01*
X7294Y0D01*
X7194Y0D01*
X7094Y0D01*
X6994Y0D01*
X6894Y0D01*
X6794Y0D01*
X6694Y0D01*
X6594Y0D01*
X6494Y0D01*
X6395Y0D01*
X6295Y0D01*
X6195Y0D01*
X6095Y0D01*
X5995Y0D01*
X5895Y0D01*
X5795Y0D01*
X5695Y0D01*
X5595Y0D01*
X5495Y0D01*
X5395Y0D01*
X5295Y0D01*
X5196Y0D01*
X5096Y0D01*
X4996Y0D01*
X4896Y0D01*
X4796Y0D01*
X4696Y0D01*
X4596Y0D01*
X4496Y0D01*
X4396Y0D01*
X4296Y0D01*
X4196Y0D01*
X4097Y0D01*
X3997Y0D01*
X3897Y0D01*
X3797Y0D01*
X3697Y0D01*
X3597Y0D01*
X3497Y0D01*
X3397Y0D01*
X3297Y0D01*
X3197Y0D01*
X3097Y0D01*
X2997Y0D01*
X2898Y0D01*
X2798Y0D01*
X2698Y0D01*
X2598Y0D01*
X2498Y0D01*
X2398Y0D01*
X2298Y0D01*
X2198Y0D01*
X2098Y0D01*
X1998Y0D01*
X1898Y0D01*
X1799Y0D01*
X1699Y0D01*
X1599Y0D01*
X1499Y0D01*
X1399Y0D01*
X1299Y0D01*
X1199Y0D01*
X1099Y0D01*
X999Y0D01*
X899Y0D01*
X799Y0D01*
X699Y0D01*
X600Y0D01*
X500Y0D01*
X400Y0D01*
X300Y0D01*
X200Y0D01*
X100Y0D01*
X0Y0D01*
X0Y0D01*
D11*
X9542Y48673D02*
X9542Y48090D01*
X9625Y48007D01*
X9903Y48007D01*
X9986Y48090D01*
X9986Y48673D01*
D11*
X10347Y48007D02*
X10347Y48673D01*
X10292Y48673D01*
X10208Y48562D01*
D11*
X10208Y48007D02*
X10458Y48007D01*
D12*
X10000Y48340D02*
X76040Y48340D01*
D12*
X76040Y48340D02*
X76040Y50880D01*
D12*
X76040Y50880D02*
X78580Y53420D01*
D12*
X78580Y53420D02*
X78580Y86186D01*
D12*
X78580Y86186D02*
X76040Y88726D01*
D12*
X76040Y88726D02*
X76040Y100156D01*
D12*
X76040Y100156D02*
X74516Y101680D01*
D12*
X74516Y101680D02*
X10000Y101680D01*
D12*
X19144Y80090D02*
X19144Y92790D01*
D12*
X19144Y92790D02*
X3396Y92790D01*
D12*
X3396Y92790D02*
X3396Y80090D01*
D12*
X3396Y80090D02*
X19144Y80090D01*
D12*
X10000Y101680D02*
X10000Y48340D01*
D12*
X8222Y52150D02*
X22192Y52150D01*
D12*
X22192Y52150D02*
X22192Y61040D01*
D12*
X22192Y61040D02*
X8222Y61040D01*
D12*
X8222Y61040D02*
X8222Y52150D01*
D13*
X40749Y51642D02*
X40749Y52658D01*
X41257Y52658D01*
X41427Y52489D01*
X41427Y52319D01*
X41257Y52150D01*
X40749Y52150D01*
D13*
X41257Y52150D02*
X41427Y51981D01*
X41427Y51642D01*
D13*
X41765Y51811D02*
X41935Y51642D01*
X42358Y51642D01*
X42527Y51811D01*
X42527Y51981D01*
X42358Y52150D01*
X41935Y52150D01*
X41765Y52319D01*
X41765Y52489D01*
X41935Y52658D01*
X42358Y52658D01*
X42527Y52489D01*
D13*
X43205Y51642D02*
X43205Y52658D01*
D13*
X42866Y52658D02*
X43543Y52658D01*
D13*
X44515Y52489D02*
X44515Y52531D01*
X44642Y52658D01*
X44981Y52658D01*
X45108Y52531D01*
X45108Y52362D01*
X44896Y52150D01*
X45108Y51938D01*
X45108Y51769D01*
X44981Y51642D01*
X44642Y51642D01*
X44515Y51769D01*
X44515Y51811D01*
D13*
X44769Y52150D02*
X44896Y52150D01*
D13*
X45447Y52404D02*
X45447Y51981D01*
X45785Y51642D01*
X45870Y51642D01*
X46209Y51981D01*
X46209Y52404D01*
D13*
X47309Y51811D02*
X47309Y51769D01*
X47436Y51642D01*
X47775Y51642D01*
X47902Y51769D01*
X47902Y52065D01*
X47775Y52192D01*
X47309Y52192D01*
X47309Y52658D01*
X47817Y52658D01*
D13*
X48241Y52404D02*
X48241Y51981D01*
X48579Y51642D01*
X48664Y51642D01*
X49003Y51981D01*
X49003Y52404D01*
D13*
X50676Y52065D02*
X50972Y52065D01*
X50972Y51811D01*
X50803Y51642D01*
X50379Y51642D01*
X50210Y51811D01*
X50210Y52489D01*
X50379Y52658D01*
X50803Y52658D01*
X50972Y52489D01*
X50972Y52404D01*
D13*
X51311Y51642D02*
X51311Y52404D01*
D13*
X51311Y52150D02*
X51565Y52404D01*
X51861Y52404D01*
X52073Y52192D01*
X52073Y51642D01*
D13*
X53173Y52658D02*
X53173Y51642D01*
X52623Y51642D01*
X52411Y51854D01*
X52411Y52192D01*
X52623Y52404D01*
X52919Y52404D01*
X53173Y52150D01*
D13*
X54557Y52658D02*
X54557Y52065D01*
X54895Y51642D01*
X55234Y52065D01*
X55234Y52658D01*
D13*
X55657Y52658D02*
X55657Y52658D01*
D13*
X55573Y52404D02*
X55657Y52404D01*
X55657Y51642D01*
D13*
X55573Y51642D02*
X55742Y51642D01*
D13*
X56081Y51642D02*
X56081Y52404D01*
D13*
X56081Y52150D02*
X56335Y52404D01*
X56631Y52404D01*
X56843Y52192D01*
X56843Y51642D01*
D13*
X62558Y48294D02*
X62558Y48802D01*
X62897Y49310D01*
X62982Y49310D01*
X63320Y48802D01*
X63320Y48294D01*
D13*
X62558Y48548D02*
X63320Y48548D01*
D13*
X63659Y48294D02*
X63659Y49056D01*
D13*
X63659Y48802D02*
X63913Y49056D01*
X64209Y49056D01*
X64421Y48845D01*
X64421Y48294D01*
D13*
X64887Y49056D02*
X65268Y49056D01*
X65479Y48887D01*
X65479Y48294D01*
X64929Y48294D01*
X64760Y48506D01*
X64929Y48718D01*
X65479Y48718D01*
D13*
X65818Y49310D02*
X65987Y49310D01*
X65987Y48294D01*
D13*
X65818Y48294D02*
X66157Y48294D01*
D13*
X66495Y48506D02*
X66495Y48845D01*
X66707Y49056D01*
X67046Y49056D01*
X67257Y48845D01*
X67257Y48506D01*
X67046Y48294D01*
X66707Y48294D01*
X66495Y48506D01*
D13*
X68358Y49056D02*
X68358Y48167D01*
X68231Y48040D01*
X67808Y48040D01*
D13*
X68358Y48379D02*
X67765Y48379D01*
X67596Y48548D01*
X67596Y48845D01*
X67808Y49056D01*
X68104Y49056D01*
X68358Y48802D01*
D13*
X69924Y48294D02*
X69924Y49310D01*
D13*
X69797Y48294D02*
X70051Y48294D01*
D13*
X69797Y49310D02*
X70051Y49310D01*
D13*
X70390Y48294D02*
X70390Y49056D01*
D13*
X70390Y48802D02*
X70644Y49056D01*
X70940Y49056D01*
X71152Y48845D01*
X71152Y48294D01*
D13*
X60554Y51642D02*
X60427Y51769D01*
X60427Y52531D01*
X60554Y52658D01*
X60893Y52658D01*
X61020Y52531D01*
X61020Y51769D01*
X60893Y51642D01*
X60554Y51642D01*
D13*
X60427Y51896D02*
X61020Y52404D01*
D13*
X63285Y51642D02*
X63285Y52658D01*
X63200Y52658D01*
X63073Y52489D01*
D13*
X63073Y51642D02*
X63454Y51642D01*
D13*
X65507Y52489D02*
X65507Y52531D01*
X65634Y52658D01*
X65973Y52658D01*
X66100Y52531D01*
X66100Y52235D01*
X65507Y51642D01*
X66100Y51642D01*
D13*
X68047Y52489D02*
X68047Y52531D01*
X68174Y52658D01*
X68513Y52658D01*
X68640Y52531D01*
X68640Y52362D01*
X68428Y52150D01*
X68640Y51938D01*
X68640Y51769D01*
X68513Y51642D01*
X68174Y51642D01*
X68047Y51769D01*
X68047Y51811D01*
D13*
X68301Y52150D02*
X68428Y52150D01*
D13*
X71095Y51642D02*
X71095Y52658D01*
X71011Y52658D01*
X70587Y52023D01*
X70587Y51854D01*
X71180Y51854D01*
D13*
X73127Y51811D02*
X73127Y51769D01*
X73254Y51642D01*
X73593Y51642D01*
X73720Y51769D01*
X73720Y52065D01*
X73593Y52192D01*
X73127Y52192D01*
X73127Y52658D01*
X73635Y52658D01*
D13*
X31598Y97362D02*
X31598Y97870D01*
X31937Y98378D01*
X32022Y98378D01*
X32360Y97870D01*
X32360Y97362D01*
D13*
X31598Y97616D02*
X32360Y97616D01*
D13*
X32699Y97362D02*
X32699Y98378D01*
X33207Y98378D01*
X33376Y98209D01*
X33376Y98039D01*
X33207Y97870D01*
X32699Y97870D01*
D13*
X33207Y97870D02*
X33376Y97701D01*
X33376Y97362D01*
D13*
X34392Y97362D02*
X33927Y97362D01*
X33715Y97574D01*
X33715Y97912D01*
X33927Y98124D01*
X34265Y98124D01*
X34477Y97912D01*
X34477Y97743D01*
X33715Y97743D01*
D13*
X34985Y97362D02*
X34985Y98209D01*
X35154Y98378D01*
X35324Y98378D01*
X35493Y98209D01*
X35493Y98166D01*
D13*
X34816Y97785D02*
X35154Y97785D01*
D13*
X36306Y98124D02*
X36306Y97235D01*
X36179Y97108D01*
X35756Y97108D01*
D13*
X36306Y97447D02*
X35713Y97447D01*
X35544Y97616D01*
X35544Y97912D01*
X35756Y98124D01*
X36052Y98124D01*
X36306Y97870D01*
D13*
X36645Y97362D02*
X36645Y98124D01*
D13*
X36645Y97870D02*
X36899Y98124D01*
X37195Y98124D01*
X37407Y97912D01*
X37407Y97362D01*
D13*
X38507Y98378D02*
X38507Y97362D01*
X37957Y97362D01*
X37745Y97574D01*
X37745Y97912D01*
X37957Y98124D01*
X38253Y98124D01*
X38507Y97870D01*
D13*
X39045Y97362D02*
X39045Y98378D01*
X38960Y98378D01*
X38833Y98209D01*
D13*
X38833Y97362D02*
X39214Y97362D01*
D13*
X39553Y98209D02*
X39553Y98251D01*
X39680Y98378D01*
X40019Y98378D01*
X40146Y98251D01*
X40146Y98082D01*
X39934Y97870D01*
X40146Y97658D01*
X40146Y97489D01*
X40019Y97362D01*
X39680Y97362D01*
X39553Y97489D01*
X39553Y97531D01*
D13*
X39807Y97870D02*
X39934Y97870D01*
D13*
X41585Y97362D02*
X41585Y98378D01*
X41500Y98378D01*
X41373Y98209D01*
D13*
X41373Y97362D02*
X41754Y97362D01*
D13*
X42093Y98209D02*
X42093Y98251D01*
X42220Y98378D01*
X42559Y98378D01*
X42686Y98251D01*
X42686Y97955D01*
X42093Y97362D01*
X42686Y97362D01*
D13*
X44231Y97362D02*
X44231Y98378D01*
X44146Y98378D01*
X44019Y98209D01*
D13*
X44019Y97362D02*
X44400Y97362D01*
D13*
X44950Y97362D02*
X44950Y98378D01*
X44866Y98378D01*
X44739Y98209D01*
D13*
X44739Y97362D02*
X45120Y97362D01*
D13*
X46665Y97362D02*
X46665Y98378D01*
X46580Y98378D01*
X46453Y98209D01*
D13*
X46453Y97362D02*
X46834Y97362D01*
D13*
X47300Y97362D02*
X47173Y97489D01*
X47173Y98251D01*
X47300Y98378D01*
X47639Y98378D01*
X47766Y98251D01*
X47766Y97489D01*
X47639Y97362D01*
X47300Y97362D01*
D13*
X47173Y97616D02*
X47766Y98124D01*
D13*
X49743Y97870D02*
X49277Y97870D01*
X49150Y97997D01*
X49150Y98251D01*
X49277Y98378D01*
X49616Y98378D01*
X49743Y98251D01*
X49743Y97489D01*
X49616Y97362D01*
X49277Y97362D01*
D13*
X52156Y97870D02*
X52283Y97743D01*
X52283Y97489D01*
X52156Y97362D01*
X51817Y97362D01*
X51690Y97489D01*
X51690Y97743D01*
X51817Y97870D01*
X52156Y97870D01*
X52283Y97997D01*
X52283Y98251D01*
X52156Y98378D01*
X51817Y98378D01*
X51690Y98251D01*
X51690Y97997D01*
X51817Y97870D01*
D13*
X56008Y97362D02*
X56008Y97701D01*
X56347Y98209D01*
X56347Y98378D01*
X55754Y98378D01*
D13*
X58887Y98209D02*
X58887Y98251D01*
X58760Y98378D01*
X58421Y98378D01*
X58294Y98251D01*
X58294Y97489D01*
X58421Y97362D01*
X58760Y97362D01*
X58887Y97489D01*
X58887Y97743D01*
X58760Y97870D01*
X58294Y97870D01*
D13*
X60834Y97531D02*
X60834Y97489D01*
X60961Y97362D01*
X61300Y97362D01*
X61427Y97489D01*
X61427Y97785D01*
X61300Y97912D01*
X60834Y97912D01*
X60834Y98378D01*
X61342Y98378D01*
D13*
X63882Y97362D02*
X63882Y98378D01*
X63797Y98378D01*
X63374Y97743D01*
X63374Y97574D01*
X63967Y97574D01*
D13*
X65914Y98209D02*
X65914Y98251D01*
X66041Y98378D01*
X66380Y98378D01*
X66507Y98251D01*
X66507Y98082D01*
X66295Y97870D01*
X66507Y97658D01*
X66507Y97489D01*
X66380Y97362D01*
X66041Y97362D01*
X65914Y97489D01*
X65914Y97531D01*
D13*
X66168Y97870D02*
X66295Y97870D01*
D13*
X68454Y98209D02*
X68454Y98251D01*
X68581Y98378D01*
X68920Y98378D01*
X69047Y98251D01*
X69047Y97955D01*
X68454Y97362D01*
X69047Y97362D01*
D13*
X71311Y97362D02*
X71311Y98378D01*
X71227Y98378D01*
X71100Y98209D01*
D13*
X71100Y97362D02*
X71481Y97362D01*
D13*
X73661Y97362D02*
X73534Y97489D01*
X73534Y98251D01*
X73661Y98378D01*
X74000Y98378D01*
X74127Y98251D01*
X74127Y97489D01*
X74000Y97362D01*
X73661Y97362D01*
D13*
X73534Y97616D02*
X74127Y98124D01*
D13*
X40213Y99902D02*
X40213Y100918D01*
X40806Y100918D01*
X40975Y100749D01*
X40975Y100071D01*
X40806Y99902D01*
X40213Y99902D01*
D13*
X41399Y100918D02*
X41399Y100918D01*
D13*
X41314Y100664D02*
X41399Y100664D01*
X41399Y99902D01*
D13*
X41314Y99902D02*
X41483Y99902D01*
D13*
X42584Y100664D02*
X42584Y99775D01*
X42457Y99648D01*
X42034Y99648D01*
D13*
X42584Y99987D02*
X41991Y99987D01*
X41822Y100156D01*
X41822Y100452D01*
X42034Y100664D01*
X42330Y100664D01*
X42584Y100410D01*
D13*
X43007Y100918D02*
X43007Y100918D01*
D13*
X42923Y100664D02*
X43007Y100664D01*
X43007Y99902D01*
D13*
X42923Y99902D02*
X43092Y99902D01*
D13*
X43558Y100918D02*
X43558Y100071D01*
X43727Y99902D01*
X43981Y99902D01*
X44108Y100029D01*
X44108Y100071D01*
D13*
X43431Y100664D02*
X43769Y100664D01*
D13*
X44574Y100664D02*
X44955Y100664D01*
X45166Y100495D01*
X45166Y99902D01*
X44616Y99902D01*
X44447Y100114D01*
X44616Y100325D01*
X45166Y100325D01*
D13*
X45505Y100918D02*
X45674Y100918D01*
X45674Y99902D01*
D13*
X45505Y99902D02*
X45844Y99902D01*
D13*
X47410Y99902D02*
X47410Y100918D01*
D13*
X47283Y99902D02*
X47537Y99902D01*
D13*
X47283Y100918D02*
X47537Y100918D01*
D13*
X48638Y100156D02*
X48638Y100071D01*
X48468Y99902D01*
X48045Y99902D01*
X47876Y100071D01*
X47876Y100749D01*
X48045Y100918D01*
X48468Y100918D01*
X48638Y100749D01*
X48638Y100664D01*
D13*
X49146Y99902D02*
X48976Y100071D01*
X48976Y100749D01*
X49146Y100918D01*
X49569Y100918D01*
X49738Y100749D01*
X49738Y100071D01*
X49569Y99902D01*
X49146Y99902D01*
D13*
X59517Y99902D02*
X59517Y100918D01*
X60110Y100918D01*
X60279Y100749D01*
X60279Y100071D01*
X60110Y99902D01*
X59517Y99902D01*
D13*
X60703Y100918D02*
X60703Y100918D01*
D13*
X60618Y100664D02*
X60703Y100664D01*
X60703Y99902D01*
D13*
X60618Y99902D02*
X60787Y99902D01*
D13*
X61888Y100664D02*
X61888Y99775D01*
X61761Y99648D01*
X61338Y99648D01*
D13*
X61888Y99987D02*
X61295Y99987D01*
X61126Y100156D01*
X61126Y100452D01*
X61338Y100664D01*
X61634Y100664D01*
X61888Y100410D01*
D13*
X62311Y100918D02*
X62311Y100918D01*
D13*
X62227Y100664D02*
X62311Y100664D01*
X62311Y99902D01*
D13*
X62227Y99902D02*
X62396Y99902D01*
D13*
X62862Y100918D02*
X62862Y100071D01*
X63031Y99902D01*
X63285Y99902D01*
X63412Y100029D01*
X63412Y100071D01*
D13*
X62735Y100664D02*
X63073Y100664D01*
D13*
X63878Y100664D02*
X64259Y100664D01*
X64470Y100495D01*
X64470Y99902D01*
X63920Y99902D01*
X63751Y100114D01*
X63920Y100325D01*
X64470Y100325D01*
D13*
X64809Y100918D02*
X64978Y100918D01*
X64978Y99902D01*
D13*
X64809Y99902D02*
X65148Y99902D01*
D13*
X66714Y99902D02*
X66714Y100918D01*
D13*
X66587Y99902D02*
X66841Y99902D01*
D13*
X66587Y100918D02*
X66841Y100918D01*
D13*
X67942Y100156D02*
X67942Y100071D01*
X67772Y99902D01*
X67349Y99902D01*
X67180Y100071D01*
X67180Y100749D01*
X67349Y100918D01*
X67772Y100918D01*
X67942Y100749D01*
X67942Y100664D01*
D13*
X68450Y99902D02*
X68280Y100071D01*
X68280Y100749D01*
X68450Y100918D01*
X68873Y100918D01*
X69042Y100749D01*
X69042Y100071D01*
X68873Y99902D01*
X68450Y99902D01*
D11*
X17111Y48007D02*
X17111Y48673D01*
X17500Y48673D01*
X17611Y48562D01*
X17611Y48118D01*
X17500Y48007D01*
X17111Y48007D01*
D11*
X18222Y48007D02*
X17833Y48007D01*
X17833Y48673D01*
D11*
X18833Y48007D02*
X18444Y48007D01*
X18444Y48673D01*
X18833Y48673D01*
D11*
X18778Y48340D02*
X18444Y48340D01*
D11*
X19056Y48007D02*
X19056Y48673D01*
X19444Y48673D01*
X19556Y48562D01*
X19556Y48118D01*
X19444Y48007D01*
X19056Y48007D01*
D11*
X19778Y48562D02*
X19778Y48590D01*
X19861Y48673D01*
X20083Y48673D01*
X20167Y48590D01*
X20167Y48479D01*
X20028Y48340D01*
X20167Y48201D01*
X20167Y48090D01*
X20083Y48007D01*
X19861Y48007D01*
X19778Y48090D01*
X19778Y48118D01*
D11*
X19944Y48340D02*
X20028Y48340D01*
D11*
X20889Y48173D02*
X20889Y48118D01*
X20778Y48007D01*
X20500Y48007D01*
X20389Y48118D01*
X20389Y48562D01*
X20500Y48673D01*
X20778Y48673D01*
X20889Y48562D01*
X20889Y48507D01*
D11*
X21111Y48007D02*
X21111Y48673D01*
X21444Y48673D01*
X21556Y48562D01*
X21556Y48451D01*
X21444Y48340D01*
X21111Y48340D01*
D11*
X21444Y48340D02*
X21556Y48229D01*
X21556Y48007D01*
D11*
X22167Y48007D02*
X21778Y48007D01*
X21778Y48673D01*
X22167Y48673D01*
D11*
X22111Y48340D02*
X21778Y48340D01*
D11*
X22389Y48007D02*
X22389Y48673D01*
X22778Y48673D01*
X22889Y48562D01*
X22889Y48118D01*
X22778Y48007D01*
X22389Y48007D01*
D14*
X19000Y49340D02*
X17600Y49340D01*
D14*
X17600Y49340D02*
X17600Y47340D01*
D14*
X17600Y47340D02*
X19000Y47340D01*
D14*
X21000Y49340D02*
X22400Y49340D01*
D14*
X22400Y49340D02*
X22400Y47340D01*
D14*
X22400Y47340D02*
X21000Y47340D01*
D14*
X20300Y49040D02*
X20300Y48340D01*
D14*
X20300Y48340D02*
X20300Y47640D01*
D14*
X20300Y48340D02*
X19700Y48940D01*
D14*
X19700Y48940D02*
X19700Y47740D01*
D14*
X19700Y47740D02*
X20300Y48340D01*
D11*
X27944Y48007D02*
X27944Y48673D01*
X28278Y48673D01*
X28389Y48562D01*
X28389Y48451D01*
X28278Y48340D01*
X27944Y48340D01*
D11*
X28278Y48340D02*
X28389Y48229D01*
X28389Y48007D01*
D11*
X28611Y48007D02*
X28611Y48507D01*
D11*
X28611Y48284D02*
X28806Y48507D01*
X29028Y48507D01*
X29111Y48423D01*
X29111Y48396D01*
D11*
X29778Y48007D02*
X29472Y48007D01*
X29333Y48146D01*
X29333Y48368D01*
X29472Y48507D01*
X29694Y48507D01*
X29833Y48368D01*
X29833Y48257D01*
X29333Y48257D01*
D11*
X30056Y48118D02*
X30056Y48090D01*
X30139Y48007D01*
X30472Y48007D01*
X30556Y48090D01*
X30556Y48173D01*
X30472Y48257D01*
X30139Y48257D01*
X30056Y48340D01*
X30056Y48423D01*
X30139Y48507D01*
X30472Y48507D01*
X30556Y48423D01*
X30556Y48396D01*
D11*
X30833Y48673D02*
X30833Y48673D01*
D11*
X30778Y48507D02*
X30833Y48507D01*
X30833Y48007D01*
D11*
X30778Y48007D02*
X30889Y48007D01*
D11*
X31111Y48118D02*
X31111Y48090D01*
X31194Y48007D01*
X31528Y48007D01*
X31611Y48090D01*
X31611Y48173D01*
X31528Y48257D01*
X31194Y48257D01*
X31111Y48340D01*
X31111Y48423D01*
X31194Y48507D01*
X31528Y48507D01*
X31611Y48423D01*
X31611Y48396D01*
D11*
X31917Y48673D02*
X31917Y48118D01*
X32028Y48007D01*
X32194Y48007D01*
X32278Y48090D01*
X32278Y48118D01*
D11*
X31833Y48507D02*
X32056Y48507D01*
D11*
X32500Y48146D02*
X32500Y48368D01*
X32639Y48507D01*
X32861Y48507D01*
X33000Y48368D01*
X33000Y48146D01*
X32861Y48007D01*
X32639Y48007D01*
X32500Y48146D01*
D11*
X33222Y48007D02*
X33222Y48507D01*
D11*
X33222Y48284D02*
X33417Y48507D01*
X33639Y48507D01*
X33722Y48423D01*
X33722Y48396D01*
D11*
X34444Y48173D02*
X34444Y48118D01*
X34333Y48007D01*
X34056Y48007D01*
X33944Y48118D01*
X33944Y48562D01*
X34056Y48673D01*
X34333Y48673D01*
X34444Y48562D01*
X34444Y48507D01*
D11*
X34778Y48007D02*
X34778Y48562D01*
X34889Y48673D01*
X35000Y48673D01*
X35111Y48562D01*
X35111Y48534D01*
D11*
X34667Y48284D02*
X34889Y48284D01*
D11*
X35333Y48146D02*
X35333Y48368D01*
X35472Y48507D01*
X35694Y48507D01*
X35833Y48368D01*
X35833Y48146D01*
X35694Y48007D01*
X35472Y48007D01*
X35333Y48146D01*
D11*
X36056Y48007D02*
X36056Y48507D01*
D11*
X36056Y48284D02*
X36250Y48507D01*
X36472Y48507D01*
X36556Y48423D01*
X36556Y48396D01*
D11*
X37278Y48173D02*
X37278Y48118D01*
X37167Y48007D01*
X36889Y48007D01*
X36778Y48118D01*
X36778Y48562D01*
X36889Y48673D01*
X37167Y48673D01*
X37278Y48562D01*
X37278Y48507D01*
D11*
X37500Y48673D02*
X37611Y48673D01*
X37611Y48007D01*
D11*
X37500Y48007D02*
X37722Y48007D01*
D11*
X38389Y48007D02*
X38083Y48007D01*
X37944Y48146D01*
X37944Y48368D01*
X38083Y48507D01*
X38306Y48507D01*
X38444Y48368D01*
X38444Y48257D01*
X37944Y48257D01*
D11*
X39167Y48673D02*
X39167Y48007D01*
X38806Y48007D01*
X38667Y48146D01*
X38667Y48368D01*
X38806Y48507D01*
X39000Y48507D01*
X39167Y48340D01*
D11*
X39889Y48173D02*
X39889Y48118D01*
X39778Y48007D01*
X39500Y48007D01*
X39389Y48118D01*
X39389Y48562D01*
X39500Y48673D01*
X39778Y48673D01*
X39889Y48562D01*
X39889Y48507D01*
D11*
X40111Y48007D02*
X40111Y48507D01*
D11*
X40111Y48284D02*
X40306Y48507D01*
X40528Y48507D01*
X40611Y48423D01*
X40611Y48396D01*
D11*
X41278Y48007D02*
X40972Y48007D01*
X40833Y48146D01*
X40833Y48368D01*
X40972Y48507D01*
X41194Y48507D01*
X41333Y48368D01*
X41333Y48257D01*
X40833Y48257D01*
D11*
X42056Y48673D02*
X42056Y48007D01*
X41694Y48007D01*
X41556Y48146D01*
X41556Y48368D01*
X41694Y48507D01*
X41889Y48507D01*
X42056Y48340D01*
D11*
X36056Y48007D02*
X36056Y48673D01*
X36444Y48673D01*
X36556Y48562D01*
X36556Y48118D01*
X36444Y48007D01*
X36056Y48007D01*
D11*
X37167Y48007D02*
X36778Y48007D01*
X36778Y48673D01*
D11*
X37778Y48007D02*
X37389Y48007D01*
X37389Y48673D01*
X37778Y48673D01*
D11*
X37722Y48340D02*
X37389Y48340D01*
D11*
X38000Y48007D02*
X38000Y48673D01*
X38389Y48673D01*
X38500Y48562D01*
X38500Y48118D01*
X38389Y48007D01*
X38000Y48007D01*
D11*
X38722Y48562D02*
X38722Y48590D01*
X38806Y48673D01*
X39028Y48673D01*
X39111Y48590D01*
X39111Y48396D01*
X38722Y48007D01*
X39111Y48007D01*
D11*
X39833Y48173D02*
X39833Y48118D01*
X39722Y48007D01*
X39444Y48007D01*
X39333Y48118D01*
X39333Y48562D01*
X39444Y48673D01*
X39722Y48673D01*
X39833Y48562D01*
X39833Y48507D01*
D11*
X40167Y48007D02*
X40056Y48118D01*
X40056Y48562D01*
X40167Y48673D01*
X40444Y48673D01*
X40556Y48562D01*
X40556Y48118D01*
X40444Y48007D01*
X40167Y48007D01*
D11*
X40778Y48007D02*
X40778Y48673D01*
X41111Y48673D01*
X41222Y48562D01*
X41222Y48451D01*
X41111Y48340D01*
X40778Y48340D01*
D11*
X41111Y48340D02*
X41222Y48229D01*
X41222Y48007D01*
D11*
X41444Y48007D02*
X41444Y48340D01*
X41667Y48673D01*
X41722Y48673D01*
X41944Y48340D01*
X41944Y48007D01*
D11*
X41444Y48173D02*
X41944Y48173D01*
D11*
X42167Y48007D02*
X42167Y48673D01*
D11*
X42167Y48618D02*
X42611Y48201D01*
D11*
X42611Y48007D02*
X42611Y48673D01*
D11*
X43139Y48284D02*
X43333Y48284D01*
X43333Y48118D01*
X43222Y48007D01*
X42944Y48007D01*
X42833Y48118D01*
X42833Y48562D01*
X42944Y48673D01*
X43222Y48673D01*
X43333Y48562D01*
X43333Y48507D01*
D11*
X43944Y48007D02*
X43556Y48007D01*
X43556Y48673D01*
X43944Y48673D01*
D11*
X43889Y48340D02*
X43556Y48340D01*
D14*
X39000Y49340D02*
X37600Y49340D01*
D14*
X37600Y49340D02*
X37600Y47340D01*
D14*
X37600Y47340D02*
X39000Y47340D01*
D14*
X41000Y49340D02*
X42400Y49340D01*
D14*
X42400Y49340D02*
X42400Y47340D01*
D14*
X42400Y47340D02*
X41000Y47340D01*
D14*
X40300Y49040D02*
X40300Y48340D01*
D14*
X40300Y48340D02*
X40300Y47640D01*
D14*
X40300Y48340D02*
X39700Y48940D01*
D14*
X39700Y48940D02*
X39700Y47740D01*
D14*
X39700Y47740D02*
X40300Y48340D01*
D11*
X41542Y43007D02*
X41542Y43673D01*
X41931Y43673D01*
X42042Y43562D01*
X42042Y43118D01*
X41931Y43007D01*
X41542Y43007D01*
D11*
X42653Y43007D02*
X42264Y43007D01*
X42264Y43673D01*
D11*
X43264Y43007D02*
X42875Y43007D01*
X42875Y43673D01*
X43264Y43673D01*
D11*
X43208Y43340D02*
X42875Y43340D01*
D11*
X43486Y43007D02*
X43486Y43673D01*
X43875Y43673D01*
X43986Y43562D01*
X43986Y43118D01*
X43875Y43007D01*
X43486Y43007D01*
D11*
X44347Y43007D02*
X44347Y43673D01*
X44292Y43673D01*
X44208Y43562D01*
D11*
X44208Y43007D02*
X44458Y43007D01*
D11*
X45181Y43173D02*
X45181Y43118D01*
X45069Y43007D01*
X44792Y43007D01*
X44681Y43118D01*
X44681Y43562D01*
X44792Y43673D01*
X45069Y43673D01*
X45181Y43562D01*
X45181Y43507D01*
D11*
X45708Y43284D02*
X45903Y43284D01*
X45903Y43118D01*
X45792Y43007D01*
X45514Y43007D01*
X45403Y43118D01*
X45403Y43562D01*
X45514Y43673D01*
X45792Y43673D01*
X45903Y43562D01*
X45903Y43507D01*
D11*
X46125Y43007D02*
X46125Y43673D01*
X46458Y43673D01*
X46569Y43562D01*
X46569Y43451D01*
X46458Y43340D01*
X46125Y43340D01*
D11*
X46458Y43340D02*
X46569Y43229D01*
X46569Y43007D01*
D11*
X47181Y43007D02*
X46792Y43007D01*
X46792Y43673D01*
X47181Y43673D01*
D11*
X47125Y43340D02*
X46792Y43340D01*
D11*
X47792Y43007D02*
X47403Y43007D01*
X47403Y43673D01*
X47792Y43673D01*
D11*
X47736Y43340D02*
X47403Y43340D01*
D11*
X48014Y43007D02*
X48014Y43673D01*
D11*
X48014Y43618D02*
X48458Y43201D01*
D11*
X48458Y43007D02*
X48458Y43673D01*
D14*
X44000Y44340D02*
X42600Y44340D01*
D14*
X42600Y44340D02*
X42600Y42340D01*
D14*
X42600Y42340D02*
X44000Y42340D01*
D14*
X46000Y44340D02*
X47400Y44340D01*
D14*
X47400Y44340D02*
X47400Y42340D01*
D14*
X47400Y42340D02*
X46000Y42340D01*
D14*
X45300Y44040D02*
X45300Y43340D01*
D14*
X45300Y43340D02*
X45300Y42640D01*
D14*
X45300Y43340D02*
X44700Y43940D01*
D14*
X44700Y43940D02*
X44700Y42740D01*
D14*
X44700Y42740D02*
X45300Y43340D01*
D11*
X31875Y43007D02*
X31875Y43673D01*
X32208Y43673D01*
X32319Y43562D01*
X32319Y43451D01*
X32208Y43340D01*
X31875Y43340D01*
D11*
X32208Y43340D02*
X32319Y43229D01*
X32319Y43007D01*
D11*
X32542Y43007D02*
X32542Y43507D01*
D11*
X32542Y43284D02*
X32736Y43507D01*
X32958Y43507D01*
X33042Y43423D01*
X33042Y43396D01*
D11*
X33708Y43007D02*
X33403Y43007D01*
X33264Y43146D01*
X33264Y43368D01*
X33403Y43507D01*
X33625Y43507D01*
X33764Y43368D01*
X33764Y43257D01*
X33264Y43257D01*
D11*
X33986Y43118D02*
X33986Y43090D01*
X34069Y43007D01*
X34403Y43007D01*
X34486Y43090D01*
X34486Y43173D01*
X34403Y43257D01*
X34069Y43257D01*
X33986Y43340D01*
X33986Y43423D01*
X34069Y43507D01*
X34403Y43507D01*
X34486Y43423D01*
X34486Y43396D01*
D11*
X34764Y43673D02*
X34764Y43673D01*
D11*
X34708Y43507D02*
X34764Y43507D01*
X34764Y43007D01*
D11*
X34708Y43007D02*
X34819Y43007D01*
D11*
X35042Y43118D02*
X35042Y43090D01*
X35125Y43007D01*
X35458Y43007D01*
X35542Y43090D01*
X35542Y43173D01*
X35458Y43257D01*
X35125Y43257D01*
X35042Y43340D01*
X35042Y43423D01*
X35125Y43507D01*
X35458Y43507D01*
X35542Y43423D01*
X35542Y43396D01*
D11*
X35847Y43673D02*
X35847Y43118D01*
X35958Y43007D01*
X36125Y43007D01*
X36208Y43090D01*
X36208Y43118D01*
D11*
X35764Y43507D02*
X35986Y43507D01*
D11*
X36431Y43146D02*
X36431Y43368D01*
X36569Y43507D01*
X36792Y43507D01*
X36931Y43368D01*
X36931Y43146D01*
X36792Y43007D01*
X36569Y43007D01*
X36431Y43146D01*
D11*
X37153Y43007D02*
X37153Y43507D01*
D11*
X37153Y43284D02*
X37347Y43507D01*
X37569Y43507D01*
X37653Y43423D01*
X37653Y43396D01*
D11*
X38375Y43173D02*
X38375Y43118D01*
X38264Y43007D01*
X37986Y43007D01*
X37875Y43118D01*
X37875Y43562D01*
X37986Y43673D01*
X38264Y43673D01*
X38375Y43562D01*
X38375Y43507D01*
D11*
X38708Y43007D02*
X38708Y43562D01*
X38819Y43673D01*
X38931Y43673D01*
X39042Y43562D01*
X39042Y43534D01*
D11*
X38597Y43284D02*
X38819Y43284D01*
D11*
X39264Y43146D02*
X39264Y43368D01*
X39403Y43507D01*
X39625Y43507D01*
X39764Y43368D01*
X39764Y43146D01*
X39625Y43007D01*
X39403Y43007D01*
X39264Y43146D01*
D11*
X39986Y43007D02*
X39986Y43507D01*
D11*
X39986Y43284D02*
X40181Y43507D01*
X40403Y43507D01*
X40486Y43423D01*
X40486Y43396D01*
D11*
X41208Y43173D02*
X41208Y43118D01*
X41097Y43007D01*
X40819Y43007D01*
X40708Y43118D01*
X40708Y43562D01*
X40819Y43673D01*
X41097Y43673D01*
X41208Y43562D01*
X41208Y43507D01*
D11*
X41431Y43673D02*
X41542Y43673D01*
X41542Y43007D01*
D11*
X41431Y43007D02*
X41653Y43007D01*
D11*
X42319Y43007D02*
X42014Y43007D01*
X41875Y43146D01*
X41875Y43368D01*
X42014Y43507D01*
X42236Y43507D01*
X42375Y43368D01*
X42375Y43257D01*
X41875Y43257D01*
D11*
X43097Y43673D02*
X43097Y43007D01*
X42736Y43007D01*
X42597Y43146D01*
X42597Y43368D01*
X42736Y43507D01*
X42931Y43507D01*
X43097Y43340D01*
D11*
X43819Y43173D02*
X43819Y43118D01*
X43708Y43007D01*
X43431Y43007D01*
X43319Y43118D01*
X43319Y43562D01*
X43431Y43673D01*
X43708Y43673D01*
X43819Y43562D01*
X43819Y43507D01*
D11*
X44042Y43146D02*
X44042Y43368D01*
X44181Y43507D01*
X44403Y43507D01*
X44542Y43368D01*
X44542Y43146D01*
X44403Y43007D01*
X44181Y43007D01*
X44042Y43146D01*
D11*
X44764Y43007D02*
X44764Y43507D01*
D11*
X44764Y43284D02*
X44958Y43507D01*
X45181Y43507D01*
X45264Y43423D01*
X45264Y43396D01*
D11*
X45569Y43507D02*
X45819Y43507D01*
X45958Y43396D01*
X45958Y43007D01*
X45597Y43007D01*
X45486Y43146D01*
X45597Y43284D01*
X45958Y43284D01*
D11*
X46181Y43007D02*
X46181Y43507D01*
D11*
X46181Y43340D02*
X46347Y43507D01*
X46542Y43507D01*
X46681Y43368D01*
X46681Y43007D01*
D11*
X47403Y43507D02*
X47403Y42923D01*
X47319Y42840D01*
X47042Y42840D01*
D11*
X47403Y43062D02*
X47014Y43062D01*
X46903Y43173D01*
X46903Y43368D01*
X47042Y43507D01*
X47236Y43507D01*
X47403Y43340D01*
D11*
X48069Y43007D02*
X47764Y43007D01*
X47625Y43146D01*
X47625Y43368D01*
X47764Y43507D01*
X47986Y43507D01*
X48125Y43368D01*
X48125Y43257D01*
X47625Y43257D01*
D11*
X37222Y38007D02*
X37222Y38673D01*
X37556Y38673D01*
X37667Y38562D01*
X37667Y38451D01*
X37556Y38340D01*
X37222Y38340D01*
D11*
X37556Y38340D02*
X37667Y38229D01*
X37667Y38007D01*
D11*
X37889Y38007D02*
X37889Y38507D01*
D11*
X37889Y38284D02*
X38083Y38507D01*
X38306Y38507D01*
X38389Y38423D01*
X38389Y38396D01*
D11*
X39056Y38007D02*
X38750Y38007D01*
X38611Y38146D01*
X38611Y38368D01*
X38750Y38507D01*
X38972Y38507D01*
X39111Y38368D01*
X39111Y38257D01*
X38611Y38257D01*
D11*
X39333Y38118D02*
X39333Y38090D01*
X39417Y38007D01*
X39750Y38007D01*
X39833Y38090D01*
X39833Y38173D01*
X39750Y38257D01*
X39417Y38257D01*
X39333Y38340D01*
X39333Y38423D01*
X39417Y38507D01*
X39750Y38507D01*
X39833Y38423D01*
X39833Y38396D01*
D11*
X40111Y38673D02*
X40111Y38673D01*
D11*
X40056Y38507D02*
X40111Y38507D01*
X40111Y38007D01*
D11*
X40056Y38007D02*
X40167Y38007D01*
D11*
X40389Y38118D02*
X40389Y38090D01*
X40472Y38007D01*
X40806Y38007D01*
X40889Y38090D01*
X40889Y38173D01*
X40806Y38257D01*
X40472Y38257D01*
X40389Y38340D01*
X40389Y38423D01*
X40472Y38507D01*
X40806Y38507D01*
X40889Y38423D01*
X40889Y38396D01*
D11*
X41194Y38673D02*
X41194Y38118D01*
X41306Y38007D01*
X41472Y38007D01*
X41556Y38090D01*
X41556Y38118D01*
D11*
X41111Y38507D02*
X41333Y38507D01*
D11*
X41778Y38146D02*
X41778Y38368D01*
X41917Y38507D01*
X42139Y38507D01*
X42278Y38368D01*
X42278Y38146D01*
X42139Y38007D01*
X41917Y38007D01*
X41778Y38146D01*
D11*
X42500Y38007D02*
X42500Y38507D01*
D11*
X42500Y38284D02*
X42694Y38507D01*
X42917Y38507D01*
X43000Y38423D01*
X43000Y38396D01*
D11*
X43722Y38173D02*
X43722Y38118D01*
X43611Y38007D01*
X43333Y38007D01*
X43222Y38118D01*
X43222Y38562D01*
X43333Y38673D01*
X43611Y38673D01*
X43722Y38562D01*
X43722Y38507D01*
D11*
X44056Y38007D02*
X44056Y38562D01*
X44167Y38673D01*
X44278Y38673D01*
X44389Y38562D01*
X44389Y38534D01*
D11*
X43944Y38284D02*
X44167Y38284D01*
D11*
X44611Y38146D02*
X44611Y38368D01*
X44750Y38507D01*
X44972Y38507D01*
X45111Y38368D01*
X45111Y38146D01*
X44972Y38007D01*
X44750Y38007D01*
X44611Y38146D01*
D11*
X45333Y38007D02*
X45333Y38507D01*
D11*
X45333Y38284D02*
X45528Y38507D01*
X45750Y38507D01*
X45833Y38423D01*
X45833Y38396D01*
D11*
X46556Y38173D02*
X46556Y38118D01*
X46444Y38007D01*
X46167Y38007D01*
X46056Y38118D01*
X46056Y38562D01*
X46167Y38673D01*
X46444Y38673D01*
X46556Y38562D01*
X46556Y38507D01*
D11*
X46778Y38673D02*
X46889Y38673D01*
X46889Y38007D01*
D11*
X46778Y38007D02*
X47000Y38007D01*
D11*
X47667Y38007D02*
X47361Y38007D01*
X47222Y38146D01*
X47222Y38368D01*
X47361Y38507D01*
X47583Y38507D01*
X47722Y38368D01*
X47722Y38257D01*
X47222Y38257D01*
D11*
X48444Y38673D02*
X48444Y38007D01*
X48083Y38007D01*
X47944Y38146D01*
X47944Y38368D01*
X48083Y38507D01*
X48278Y38507D01*
X48444Y38340D01*
D11*
X49167Y38173D02*
X49167Y38118D01*
X49056Y38007D01*
X48778Y38007D01*
X48667Y38118D01*
X48667Y38562D01*
X48778Y38673D01*
X49056Y38673D01*
X49167Y38562D01*
X49167Y38507D01*
D11*
X49889Y38507D02*
X49889Y37923D01*
X49806Y37840D01*
X49528Y37840D01*
D11*
X49889Y38062D02*
X49500Y38062D01*
X49389Y38173D01*
X49389Y38368D01*
X49528Y38507D01*
X49722Y38507D01*
X49889Y38340D01*
D11*
X50111Y38007D02*
X50111Y38507D01*
D11*
X50111Y38284D02*
X50306Y38507D01*
X50528Y38507D01*
X50611Y38423D01*
X50611Y38396D01*
D11*
X51278Y38007D02*
X50972Y38007D01*
X50833Y38146D01*
X50833Y38368D01*
X50972Y38507D01*
X51194Y38507D01*
X51333Y38368D01*
X51333Y38257D01*
X50833Y38257D01*
D11*
X52000Y38007D02*
X51694Y38007D01*
X51556Y38146D01*
X51556Y38368D01*
X51694Y38507D01*
X51917Y38507D01*
X52056Y38368D01*
X52056Y38257D01*
X51556Y38257D01*
D11*
X52278Y38007D02*
X52278Y38507D01*
D11*
X52278Y38340D02*
X52444Y38507D01*
X52639Y38507D01*
X52778Y38368D01*
X52778Y38007D01*
M02*
